<?xml version="1.0" encoding="UTF-8" standalone="no"?>
<svg
   version="1.1"
   width="512"
   height="512"
   id="svg2266"
   sodipodi:docname="logo.svg"
   inkscape:version="1.2 (1:1.2.1+202207142221+cd75a1ee6d)"
   xmlns:inkscape="http://www.inkscape.org/namespaces/inkscape"
   xmlns:sodipodi="http://sodipodi.sourceforge.net/DTD/sodipodi-0.dtd"
   xmlns="http://www.w3.org/2000/svg"
   xmlns:svg="http://www.w3.org/2000/svg">
  <defs
     id="defs2270" />
  <sodipodi:namedview
     id="namedview2268"
     pagecolor="#505050"
     bordercolor="#eeeeee"
     borderopacity="1"
     inkscape:showpageshadow="0"
     inkscape:pageopacity="0"
     inkscape:pagecheckerboard="0"
     inkscape:deskcolor="#505050"
     showgrid="false"
     inkscape:zoom="0.72543916"
     inkscape:cx="212.97444"
     inkscape:cy="275.69507"
     inkscape:window-width="1366"
     inkscape:window-height="708"
     inkscape:window-x="0"
     inkscape:window-y="36"
     inkscape:window-maximized="1"
     inkscape:current-layer="g645" />
  <g
     inkscape:groupmode="layer"
     id="layer1"
     inkscape:label="Layer 1"
     style="display:inline">
    <g
       id="g645">
      <path
         style="display:inline;fill:#35087e;stroke:none;stroke-width:0;stroke-dasharray:none"
         d="m 1144.117,816.41388 70.5006,-338.29038 -82.6689,-5.04151 -40.8882,183.33434 z"
         transform="matrix(0.84114945,0,0,0.84114945,-521.0952,-198.76199)"
         id="path623"
         sodipodi:nodetypes="ccccc" />
      <path
         style="display:inline;fill:#35087e;stroke:none;stroke-width:0;stroke-dasharray:none"
         d="m 1214.6176,478.1235 -295.69264,-213.63086 48.6752,90.12284 164.34854,118.46651 z"
         transform="matrix(0.84114945,0,0,0.84114945,-521.0952,-198.76199)"
         id="path401"
         sodipodi:nodetypes="ccccc" />
      <path
         style="display:inline;fill:#560dcb;stroke:none;stroke-width:0;stroke-dasharray:none"
         d="M 918.92496,264.49264 633.08069,453.21433 815.36664,459.46096 967.60016,354.61548 Z"
         id="path393"
         sodipodi:nodetypes="ccccc"
         transform="matrix(0.84114945,0,0,0.84114945,-521.0952,-198.76199)" />
      <path
         style="display:inline;fill:#975cf6;stroke:none;stroke-width:0;stroke-dasharray:none"
         d="M 633.08069,453.21433 769.76056,816.79438 891.01935,652.53437 815.36664,459.46096 Z"
         transform="matrix(0.84114945,0,0,0.84114945,-521.0952,-198.76199)"
         id="path425"
         sodipodi:nodetypes="ccccc" />
      <path
         style="display:inline;fill:#560dcb;stroke:none;stroke-width:0;stroke-dasharray:none"
         d="m 769.76056,816.79438 374.35644,-0.3805 -53.0565,-159.99755 -200.04115,-3.88196 z"
         transform="matrix(0.84114945,0,0,0.84114945,-521.0952,-198.76199)"
         id="path417"
         sodipodi:nodetypes="ccccc" />
      <path
         style="display:inline;fill:#c8a9fa;stroke:none;stroke-width:0;stroke-dasharray:none;fill-opacity:1"
         d="M 891.01935,652.53437 815.36664,459.46096 967.60016,354.61548 1131.9487,473.08199 1091.0605,656.41633 Z"
         transform="matrix(0.84114945,0,0,0.84114945,-521.0952,-198.76199)"
         id="path447"
         sodipodi:nodetypes="cccccc" />
    </g>
  </g>
</svg>
