<?xml version="1.0" encoding="UTF-8" standalone="no"?><svg xmlns="http://www.w3.org/2000/svg" xmlns:xlink="http://www.w3.org/1999/xlink" contentStyleType="text/css" height="620px" preserveAspectRatio="none" style="width:1051px;height:620px;background:#FFFFFF;" version="1.1" viewBox="0 0 1051 620" width="1051px" zoomAndPan="magnify"><defs/><g><!--MD5=[2b8367ee8a196632b51868e08daef08d]
class Auth--><g id="elem_Auth"><rect codeLine="2" fill="#F1F1F1" height="145.7813" id="Auth" rx="2.5" ry="2.5" style="stroke:#181818;stroke-width:0.5;" width="262" x="7" y="237.5"/><ellipse cx="117.75" cy="253.5" fill="#ADD1B2" rx="11" ry="11" style="stroke:#181818;stroke-width:1.0;"/><path d="M120.7188,259.1406 Q120.1406,259.4375 119.5,259.5781 Q118.8594,259.7344 118.1563,259.7344 Q115.6563,259.7344 114.3281,258.0938 Q113.0156,256.4375 113.0156,253.3125 Q113.0156,250.1875 114.3281,248.5313 Q115.6563,246.875 118.1563,246.875 Q118.8594,246.875 119.5,247.0313 Q120.1563,247.1875 120.7188,247.4844 L120.7188,250.2031 Q120.0938,249.625 119.5,249.3594 Q118.9063,249.0781 118.2813,249.0781 Q116.9375,249.0781 116.25,250.1563 Q115.5625,251.2188 115.5625,253.3125 Q115.5625,255.4063 116.25,256.4844 Q116.9375,257.5469 118.2813,257.5469 Q118.9063,257.5469 119.5,257.2813 Q120.0938,257 120.7188,256.4219 L120.7188,259.1406 Z " fill="#000000"/><text fill="#000000" font-family="sans-serif" font-size="14" lengthAdjust="spacing" textLength="32" x="138.25" y="258.3467">Auth</text><line style="stroke:#181818;stroke-width:0.5;" x1="8" x2="268" y1="269.5" y2="269.5"/><text fill="#000000" font-family="sans-serif" font-size="14" lengthAdjust="spacing" textLength="124" x="13" y="286.4951">-username: String</text><text fill="#000000" font-family="sans-serif" font-size="14" lengthAdjust="spacing" textLength="121" x="13" y="302.792">-password: String</text><line style="stroke:#181818;stroke-width:0.5;" x1="8" x2="268" y1="310.0938" y2="310.0938"/><text fill="#000000" font-family="sans-serif" font-size="14" lengthAdjust="spacing" textLength="229" x="13" y="327.0889">+boolean isAccountNonExpired()</text><text fill="#000000" font-family="sans-serif" font-size="14" lengthAdjust="spacing" textLength="228" x="13" y="343.3857">+boolean isAccountNonLocked()</text><text fill="#000000" font-family="sans-serif" font-size="14" lengthAdjust="spacing" textLength="250" x="13" y="359.6826">+boolean isCredentialsNonExpired()</text><text fill="#000000" font-family="sans-serif" font-size="14" lengthAdjust="spacing" textLength="149" x="13" y="375.9795">+boolean isEnabled()</text></g><!--MD5=[3fd616f346a44cd59a91eb10b19e157c]
class User--><g id="elem_User"><rect codeLine="10" fill="#F1F1F1" height="145.7813" id="User" rx="2.5" ry="2.5" style="stroke:#181818;stroke-width:0.5;" width="218" x="368" y="7"/><ellipse cx="456.75" cy="23" fill="#ADD1B2" rx="11" ry="11" style="stroke:#181818;stroke-width:1.0;"/><path d="M459.7188,28.6406 Q459.1406,28.9375 458.5,29.0781 Q457.8594,29.2344 457.1563,29.2344 Q454.6563,29.2344 453.3281,27.5938 Q452.0156,25.9375 452.0156,22.8125 Q452.0156,19.6875 453.3281,18.0313 Q454.6563,16.375 457.1563,16.375 Q457.8594,16.375 458.5,16.5313 Q459.1563,16.6875 459.7188,16.9844 L459.7188,19.7031 Q459.0938,19.125 458.5,18.8594 Q457.9063,18.5781 457.2813,18.5781 Q455.9375,18.5781 455.25,19.6563 Q454.5625,20.7188 454.5625,22.8125 Q454.5625,24.9063 455.25,25.9844 Q455.9375,27.0469 457.2813,27.0469 Q457.9063,27.0469 458.5,26.7813 Q459.0938,26.5 459.7188,25.9219 L459.7188,28.6406 Z " fill="#000000"/><text fill="#000000" font-family="sans-serif" font-size="14" lengthAdjust="spacing" textLength="32" x="477.25" y="27.8467">User</text><line style="stroke:#181818;stroke-width:0.5;" x1="369" x2="585" y1="39" y2="39"/><text fill="#000000" font-family="sans-serif" font-size="14" lengthAdjust="spacing" textLength="77" x="374" y="55.9951">-auth: Auth</text><text fill="#000000" font-family="sans-serif" font-size="14" lengthAdjust="spacing" textLength="153" x="374" y="72.292">-following: List&lt;User&gt;</text><text fill="#000000" font-family="sans-serif" font-size="14" lengthAdjust="spacing" textLength="121" x="374" y="88.5889">-followers: int = 0</text><text fill="#000000" font-family="sans-serif" font-size="14" lengthAdjust="spacing" textLength="118" x="374" y="104.8857">-joinDate: Instant</text><line style="stroke:#181818;stroke-width:0.5;" x1="369" x2="585" y1="112.1875" y2="112.1875"/><text fill="#000000" font-family="sans-serif" font-size="14" lengthAdjust="spacing" textLength="188" x="374" y="129.1826">+boolean follow(User user)</text><text fill="#000000" font-family="sans-serif" font-size="14" lengthAdjust="spacing" textLength="206" x="374" y="145.4795">+boolean unfollow(User user)</text></g><!--MD5=[7b57f7066b803747d2119f99dd1555d4]
class Profile--><g id="elem_Profile"><rect codeLine="18" fill="#F1F1F1" height="194.6719" id="Profile" rx="2.5" ry="2.5" style="stroke:#181818;stroke-width:0.5;" width="204" x="375" y="213"/><ellipse cx="451.75" cy="229" fill="#ADD1B2" rx="11" ry="11" style="stroke:#181818;stroke-width:1.0;"/><path d="M454.7188,234.6406 Q454.1406,234.9375 453.5,235.0781 Q452.8594,235.2344 452.1563,235.2344 Q449.6563,235.2344 448.3281,233.5938 Q447.0156,231.9375 447.0156,228.8125 Q447.0156,225.6875 448.3281,224.0313 Q449.6563,222.375 452.1563,222.375 Q452.8594,222.375 453.5,222.5313 Q454.1563,222.6875 454.7188,222.9844 L454.7188,225.7031 Q454.0938,225.125 453.5,224.8594 Q452.9063,224.5781 452.2813,224.5781 Q450.9375,224.5781 450.25,225.6563 Q449.5625,226.7188 449.5625,228.8125 Q449.5625,230.9063 450.25,231.9844 Q450.9375,233.0469 452.2813,233.0469 Q452.9063,233.0469 453.5,232.7813 Q454.0938,232.5 454.7188,231.9219 L454.7188,234.6406 Z " fill="#000000"/><text fill="#000000" font-family="sans-serif" font-size="14" lengthAdjust="spacing" textLength="42" x="472.25" y="233.8467">Profile</text><line style="stroke:#181818;stroke-width:0.5;" x1="376" x2="578" y1="245" y2="245"/><text fill="#000000" font-family="sans-serif" font-size="14" lengthAdjust="spacing" textLength="77" x="381" y="261.9951">-user: User</text><text fill="#000000" font-family="sans-serif" font-size="14" lengthAdjust="spacing" textLength="93" x="381" y="278.292">-name: String</text><text fill="#000000" font-family="sans-serif" font-size="14" lengthAdjust="spacing" textLength="96" x="381" y="294.5889">-image: String</text><text fill="#000000" font-family="sans-serif" font-size="14" lengthAdjust="spacing" textLength="131" x="381" y="310.8857">-description: String</text><text fill="#000000" font-family="sans-serif" font-size="14" lengthAdjust="spacing" textLength="184" x="381" y="327.1826">-appearanceScore: double</text><text fill="#000000" font-family="sans-serif" font-size="14" lengthAdjust="spacing" textLength="181" x="381" y="343.4795">-intelligenceScore: double</text><text fill="#000000" font-family="sans-serif" font-size="14" lengthAdjust="spacing" textLength="167" x="381" y="359.7764">-characterScore: double</text><text fill="#000000" font-family="sans-serif" font-size="14" lengthAdjust="spacing" textLength="147" x="381" y="376.0732">-humorScore: double</text><text fill="#000000" font-family="sans-serif" font-size="14" lengthAdjust="spacing" textLength="192" x="381" y="392.3701">-responsibilityScore: double</text><line style="stroke:#181818;stroke-width:0.5;" x1="376" x2="578" y1="399.6719" y2="399.6719"/></g><!--MD5=[2e079e392ada54723ff95dae1718877d]
class Postable--><g id="elem_Postable"><rect codeLine="29" fill="#F1F1F1" height="178.375" id="Postable" rx="2.5" ry="2.5" style="stroke:#181818;stroke-width:0.5;" width="162" x="709" y="221.5"/><ellipse cx="757.25" cy="237.5" fill="#A9DCDF" rx="11" ry="11" style="stroke:#181818;stroke-width:1.0;"/><path d="M757.3594,232.8438 L756.2031,237.9219 L758.5313,237.9219 L757.3594,232.8438 Z M755.875,230.6094 L758.8594,230.6094 L762.2188,243 L759.7656,243 L759,239.9375 L755.7188,239.9375 L754.9688,243 L752.5313,243 L755.875,230.6094 Z " fill="#000000"/><text fill="#000000" font-family="sans-serif" font-size="14" font-style="italic" lengthAdjust="spacing" textLength="57" x="777.75" y="242.932">Postable</text><line style="stroke:#181818;stroke-width:0.5;" x1="710" x2="870" y1="253.5" y2="253.5"/><text fill="#000000" font-family="sans-serif" font-size="14" lengthAdjust="spacing" textLength="91" x="715" y="270.4951">-author: User</text><text fill="#000000" font-family="sans-serif" font-size="14" lengthAdjust="spacing" textLength="80" x="715" y="286.792">-text: String</text><text fill="#000000" font-family="sans-serif" font-size="14" lengthAdjust="spacing" textLength="150" x="715" y="303.0889">-creationDate: Instant</text><text fill="#000000" font-family="sans-serif" font-size="14" lengthAdjust="spacing" textLength="62" x="715" y="319.3857">-likes: int</text><text fill="#000000" font-family="sans-serif" font-size="14" lengthAdjust="spacing" textLength="82" x="715" y="335.6826">-dislikes: int</text><text fill="#000000" font-family="sans-serif" font-size="14" lengthAdjust="spacing" textLength="114" x="715" y="351.9795">-edited: boolean</text><line style="stroke:#181818;stroke-width:0.5;" x1="710" x2="870" y1="359.2813" y2="359.2813"/><text fill="#000000" font-family="sans-serif" font-size="14" lengthAdjust="spacing" textLength="77" x="715" y="376.2764">+void like()</text><text fill="#000000" font-family="sans-serif" font-size="14" lengthAdjust="spacing" textLength="97" x="715" y="392.5732">+void dislike()</text></g><!--MD5=[9bb0bdd047fba1a3c8d48282c35b4537]
class Post--><g id="elem_Post"><rect codeLine="39" fill="#F1F1F1" height="145.7813" id="Post" rx="2.5" ry="2.5" style="stroke:#181818;stroke-width:0.5;" width="261" x="420.5" y="468"/><ellipse cx="531.25" cy="484" fill="#ADD1B2" rx="11" ry="11" style="stroke:#181818;stroke-width:1.0;"/><path d="M534.2188,489.6406 Q533.6406,489.9375 533,490.0781 Q532.3594,490.2344 531.6563,490.2344 Q529.1563,490.2344 527.8281,488.5938 Q526.5156,486.9375 526.5156,483.8125 Q526.5156,480.6875 527.8281,479.0313 Q529.1563,477.375 531.6563,477.375 Q532.3594,477.375 533,477.5313 Q533.6563,477.6875 534.2188,477.9844 L534.2188,480.7031 Q533.5938,480.125 533,479.8594 Q532.4063,479.5781 531.7813,479.5781 Q530.4375,479.5781 529.75,480.6563 Q529.0625,481.7188 529.0625,483.8125 Q529.0625,485.9063 529.75,486.9844 Q530.4375,488.0469 531.7813,488.0469 Q532.4063,488.0469 533,487.7813 Q533.5938,487.5 534.2188,486.9219 L534.2188,489.6406 Z " fill="#000000"/><text fill="#000000" font-family="sans-serif" font-size="14" lengthAdjust="spacing" textLength="31" x="551.75" y="488.8467">Post</text><line style="stroke:#181818;stroke-width:0.5;" x1="421.5" x2="680.5" y1="500" y2="500"/><text fill="#000000" font-family="sans-serif" font-size="14" lengthAdjust="spacing" textLength="98" x="426.5" y="516.9951">-profile: Profile</text><text fill="#000000" font-family="sans-serif" font-size="14" lengthAdjust="spacing" textLength="96" x="426.5" y="533.292">-image: String</text><text fill="#000000" font-family="sans-serif" font-size="14" lengthAdjust="spacing" textLength="144" x="426.5" y="549.5889">-visibility: List~User~</text><text fill="#000000" font-family="sans-serif" font-size="14" lengthAdjust="spacing" textLength="79" x="426.5" y="565.8857">-title: String</text><line style="stroke:#181818;stroke-width:0.5;" x1="421.5" x2="680.5" y1="573.1875" y2="573.1875"/><text fill="#000000" font-family="sans-serif" font-size="14" lengthAdjust="spacing" textLength="239" x="426.5" y="590.1826">+boolean turnVisibleTo(User user)</text><text fill="#000000" font-family="sans-serif" font-size="14" lengthAdjust="spacing" textLength="249" x="426.5" y="606.4795">+boolean turnInvisibleTo(User user)</text></g><!--MD5=[042fa140da40c49659127f611bcff931]
class Comment--><g id="elem_Comment"><rect codeLine="47" fill="#F1F1F1" height="64.2969" id="Comment" rx="2.5" ry="2.5" style="stroke:#181818;stroke-width:0.5;" width="146" x="717" y="509"/><ellipse cx="752.7" cy="525" fill="#ADD1B2" rx="11" ry="11" style="stroke:#181818;stroke-width:1.0;"/><path d="M755.6688,530.6406 Q755.0906,530.9375 754.45,531.0781 Q753.8094,531.2344 753.1063,531.2344 Q750.6063,531.2344 749.2781,529.5938 Q747.9656,527.9375 747.9656,524.8125 Q747.9656,521.6875 749.2781,520.0313 Q750.6063,518.375 753.1063,518.375 Q753.8094,518.375 754.45,518.5313 Q755.1063,518.6875 755.6688,518.9844 L755.6688,521.7031 Q755.0438,521.125 754.45,520.8594 Q753.8563,520.5781 753.2313,520.5781 Q751.8875,520.5781 751.2,521.6563 Q750.5125,522.7188 750.5125,524.8125 Q750.5125,526.9063 751.2,527.9844 Q751.8875,529.0469 753.2313,529.0469 Q753.8563,529.0469 754.45,528.7813 Q755.0438,528.5 755.6688,527.9219 L755.6688,530.6406 Z " fill="#000000"/><text fill="#000000" font-family="sans-serif" font-size="14" lengthAdjust="spacing" textLength="68" x="771.3" y="529.8467">Comment</text><line style="stroke:#181818;stroke-width:0.5;" x1="718" x2="862" y1="541" y2="541"/><text fill="#000000" font-family="sans-serif" font-size="14" lengthAdjust="spacing" textLength="134" x="723" y="557.9951">-postable: Postable</text><line style="stroke:#181818;stroke-width:0.5;" x1="718" x2="862" y1="565.2969" y2="565.2969"/></g><!--MD5=[392569bdf4cc06d7d4c14230b81d2d7d]
class Modification--><g id="elem_Modification"><rect codeLine="50" fill="#F1F1F1" height="129.4844" id="Modification" rx="2.5" ry="2.5" style="stroke:#181818;stroke-width:0.5;" width="146" x="898" y="476.5"/><ellipse cx="927.4" cy="492.5" fill="#ADD1B2" rx="11" ry="11" style="stroke:#181818;stroke-width:1.0;"/><path d="M930.3688,498.1406 Q929.7906,498.4375 929.15,498.5781 Q928.5094,498.7344 927.8063,498.7344 Q925.3063,498.7344 923.9781,497.0938 Q922.6656,495.4375 922.6656,492.3125 Q922.6656,489.1875 923.9781,487.5313 Q925.3063,485.875 927.8063,485.875 Q928.5094,485.875 929.15,486.0313 Q929.8063,486.1875 930.3688,486.4844 L930.3688,489.2031 Q929.7438,488.625 929.15,488.3594 Q928.5563,488.0781 927.9313,488.0781 Q926.5875,488.0781 925.9,489.1563 Q925.2125,490.2188 925.2125,492.3125 Q925.2125,494.4063 925.9,495.4844 Q926.5875,496.5469 927.9313,496.5469 Q928.5563,496.5469 929.15,496.2813 Q929.7438,496 930.3688,495.4219 L930.3688,498.1406 Z " fill="#000000"/><text fill="#000000" font-family="sans-serif" font-size="14" lengthAdjust="spacing" textLength="82" x="944.6" y="497.3467">Modification</text><line style="stroke:#181818;stroke-width:0.5;" x1="899" x2="1043" y1="508.5" y2="508.5"/><text fill="#000000" font-family="sans-serif" font-size="14" lengthAdjust="spacing" textLength="134" x="904" y="525.4951">-postable: Postable</text><text fill="#000000" font-family="sans-serif" font-size="14" lengthAdjust="spacing" textLength="104" x="904" y="541.792">-oldTitle: String</text><text fill="#000000" font-family="sans-serif" font-size="14" lengthAdjust="spacing" textLength="117" x="904" y="558.0889">-oldImage: String</text><text fill="#000000" font-family="sans-serif" font-size="14" lengthAdjust="spacing" textLength="105" x="904" y="574.3857">-oldText: String</text><text fill="#000000" font-family="sans-serif" font-size="14" lengthAdjust="spacing" textLength="92" x="904" y="590.6826">-date: Instant</text><line style="stroke:#181818;stroke-width:0.5;" x1="899" x2="1043" y1="597.9844" y2="597.9844"/></g><!--MD5=[107af66394bf1ebaa045812c9c475148]
class Score--><g id="elem_Score"><rect codeLine="57" fill="#F1F1F1" height="113.1875" id="Score" rx="2.5" ry="2.5" style="stroke:#181818;stroke-width:0.5;" width="126" x="259" y="484.5"/><ellipse cx="298.3" cy="500.5" fill="#ADD1B2" rx="11" ry="11" style="stroke:#181818;stroke-width:1.0;"/><path d="M301.2688,506.1406 Q300.6906,506.4375 300.05,506.5781 Q299.4094,506.7344 298.7063,506.7344 Q296.2063,506.7344 294.8781,505.0938 Q293.5656,503.4375 293.5656,500.3125 Q293.5656,497.1875 294.8781,495.5313 Q296.2063,493.875 298.7063,493.875 Q299.4094,493.875 300.05,494.0313 Q300.7063,494.1875 301.2688,494.4844 L301.2688,497.2031 Q300.6438,496.625 300.05,496.3594 Q299.4563,496.0781 298.8313,496.0781 Q297.4875,496.0781 296.8,497.1563 Q296.1125,498.2188 296.1125,500.3125 Q296.1125,502.4063 296.8,503.4844 Q297.4875,504.5469 298.8313,504.5469 Q299.4563,504.5469 300.05,504.2813 Q300.6438,504 301.2688,503.4219 L301.2688,506.1406 Z " fill="#000000"/><text fill="#000000" font-family="sans-serif" font-size="14" lengthAdjust="spacing" textLength="40" x="317.7" y="505.3467">Score</text><line style="stroke:#181818;stroke-width:0.5;" x1="260" x2="384" y1="516.5" y2="516.5"/><text fill="#000000" font-family="sans-serif" font-size="14" lengthAdjust="spacing" textLength="70" x="265" y="533.4951">-score: int</text><text fill="#000000" font-family="sans-serif" font-size="14" lengthAdjust="spacing" textLength="91" x="265" y="549.792">-author: User</text><text fill="#000000" font-family="sans-serif" font-size="14" lengthAdjust="spacing" textLength="98" x="265" y="566.0889">-profile: Profile</text><text fill="#000000" font-family="sans-serif" font-size="14" lengthAdjust="spacing" textLength="114" x="265" y="582.3857">-category: String</text><line style="stroke:#181818;stroke-width:0.5;" x1="260" x2="384" y1="589.6875" y2="589.6875"/></g><!--MD5=[993a1ed30139d6bc9fd462e29443e622]
link User to User--><g id="link_User_User"><path codeLine="63" d="M586.26,39.09 C606.64,44.13 621,57.76 621,80 C621,102.24 606.64,115.87 586.26,120.91 " fill="none" id="User-User" style="stroke:#181818;stroke-width:1.0;"/><text fill="#000000" font-family="sans-serif" font-size="13" lengthAdjust="spacing" textLength="8" x="593.8697" y="32.9162">n</text><text fill="#000000" font-family="sans-serif" font-size="13" lengthAdjust="spacing" textLength="8" x="593.8697" y="120.2334">n</text></g><!--MD5=[b4bd39d71366c10c915fa2ab4cb00da7]
link User to Postable--><g id="link_User_Postable"><path codeLine="64" d="M576.12,153.26 C602.72,172.65 631.46,193.62 658,213 C670.93,222.44 684.58,232.41 697.99,242.22 " fill="none" id="User-to-Postable" style="stroke:#181818;stroke-width:1.0;"/><polygon fill="none" points="708.68,250.03,706.195,243.2606,698.9906,242.9508,701.4756,249.7202,708.68,250.03" style="stroke:#181818;stroke-width:1.0;"/><text fill="#000000" font-family="sans-serif" font-size="13" lengthAdjust="spacing" textLength="8" x="576.8889" y="172.7882">1</text><text fill="#000000" font-family="sans-serif" font-size="13" lengthAdjust="spacing" textLength="8" x="693.0812" y="241.0325">n</text></g><!--MD5=[a654de48d4bf1588b9fb1dcf6440abd6]
link User to Score--><g id="link_User_Score"><path codeLine="65" d="M396.75,153.16 C381.14,171.17 366.65,191.53 357,213 C319.66,296.13 315.27,402.71 317.27,471.19 " fill="none" id="User-to-Score" style="stroke:#181818;stroke-width:1.0;"/><polygon fill="none" points="317.74,484.36,321.5197,478.2188,317.3046,472.3679,313.525,478.5091,317.74,484.36" style="stroke:#181818;stroke-width:1.0;"/><text fill="#000000" font-family="sans-serif" font-size="13" lengthAdjust="spacing" textLength="8" x="380.7199" y="172.9316">1</text><text fill="#000000" font-family="sans-serif" font-size="13" lengthAdjust="spacing" textLength="8" x="308.7333" y="473.6065">n</text></g><!--MD5=[77c575690b0287b9077f2f97ff7c450d]
link User to Post--><g id="link_User_Post"><path codeLine="66" d="M558.9,153.25 C574.05,171.12 587.7,191.4 596,213 C628.11,296.58 604.26,399.95 580.8,467.82 " fill="none" id="User-Post" style="stroke:#181818;stroke-width:1.0;"/><text fill="#000000" font-family="sans-serif" font-size="13" lengthAdjust="spacing" textLength="8" x="558.0814" y="172.7772">n</text><text fill="#000000" font-family="sans-serif" font-size="13" lengthAdjust="spacing" textLength="8" x="575.3397" y="456.9623">n</text></g><!--MD5=[3b3a110f6aeec0a0bf442c01daca6c1c]
link User to Profile--><g id="link_User_Profile"><path codeLine="67" d="M477,153.3 C477,168.01 477,183.79 477,199.47 " fill="none" id="User-to-Profile" style="stroke:#181818;stroke-width:1.0;"/><polygon fill="none" points="477,212.6,481,206.6,477,200.6,473,206.6,477,212.6" style="stroke:#181818;stroke-width:1.0;"/><text fill="#000000" font-family="sans-serif" font-size="13" lengthAdjust="spacing" textLength="8" x="468.6313" y="172.8318">1</text><text fill="#000000" font-family="sans-serif" font-size="13" lengthAdjust="spacing" textLength="8" x="468.7063" y="201.9435">1</text></g><!--MD5=[d7364dcfe9966aa2373becd93566a01e]
reverse link User to Auth--><g id="link_User_Auth"><path codeLine="68" d="M358.87,160.62 C321.8,185.61 281.1,213.04 244.85,237.48 " fill="none" id="User-backto-Auth" style="stroke:#181818;stroke-width:1.0;"/><polygon fill="none" points="369.74,153.3,362.529,153.3308,359.7839,159.9989,366.9949,159.9682,369.74,153.3" style="stroke:#181818;stroke-width:1.0;"/><text fill="#000000" font-family="sans-serif" font-size="13" lengthAdjust="spacing" textLength="8" x="351.8309" y="172.5788">1</text><text fill="#000000" font-family="sans-serif" font-size="13" lengthAdjust="spacing" textLength="8" x="247.4564" y="226.2614">1</text></g><!--MD5=[2720f021d241659113ed12a13f56e7e3]
reverse link Profile to Post--><g id="link_Profile_Post"><path codeLine="69" d="M512.39,420.79 C517.55,436.71 522.75,452.76 527.58,467.69 " fill="none" id="Profile-backto-Post" style="stroke:#181818;stroke-width:1.0;"/><polygon fill="#181818" points="508.28,408.07,506.3199,415.0096,511.9717,419.488,513.9319,412.5484,508.28,408.07" style="stroke:#181818;stroke-width:1.0;"/><text fill="#000000" font-family="sans-serif" font-size="13" lengthAdjust="spacing" textLength="8" x="502.2834" y="427.8699">1</text><text fill="#000000" font-family="sans-serif" font-size="13" lengthAdjust="spacing" textLength="8" x="516.8808" y="456.8195">n</text></g><!--MD5=[e57ec2e3357ad3184610b5e0bfbb20f6]
reverse link Profile to Score--><g id="link_Profile_Score"><path codeLine="70" d="M403.99,419.13 C388.65,441.74 373.08,464.69 359.69,484.44 " fill="none" id="Profile-backto-Score" style="stroke:#181818;stroke-width:1.0;"/><polygon fill="#181818" points="411.49,408.07,404.811,410.7886,404.7517,417.9995,411.4307,415.2809,411.49,408.07" style="stroke:#181818;stroke-width:1.0;"/><text fill="#000000" font-family="sans-serif" font-size="13" lengthAdjust="spacing" textLength="8" x="398.3854" y="427.8699">1</text><text fill="#000000" font-family="sans-serif" font-size="13" lengthAdjust="spacing" textLength="8" x="356.0065" y="473.2957">n</text></g><!--MD5=[ddcec94a1d8424ec2bc8d826c26bcca6]
reverse link Postable to Modification--><g id="link_Postable_Modification"><path codeLine="71" d="M867.88,409.82 C885.77,432.41 904.33,455.84 920.7,476.49 " fill="none" id="Postable-backto-Modification" style="stroke:#181818;stroke-width:1.0;"/><polygon fill="#181818" points="859.72,399.52,860.3114,406.7068,867.1728,408.9251,866.5814,401.7383,859.72,399.52" style="stroke:#181818;stroke-width:1.0;"/><text fill="#000000" font-family="sans-serif" font-size="13" lengthAdjust="spacing" textLength="8" x="857.3678" y="419.8712">1</text><text fill="#000000" font-family="sans-serif" font-size="13" lengthAdjust="spacing" textLength="8" x="906.4216" y="465.2104">n</text></g><!--MD5=[e63508cd4518266fde4fa6d9a8e929ca]
reverse link Postable to Comment--><g id="link_Postable_Comment"><path codeLine="72" d="M777.32,412.73 C776.93,447.47 778.12,483.84 780.91,508.76 " fill="none" id="Postable-backto-Comment" style="stroke:#181818;stroke-width:1.0;"/><polygon fill="#181818" points="777.55,399.52,773.4517,405.4533,777.3522,411.5184,781.4506,405.5851,777.55,399.52" style="stroke:#181818;stroke-width:1.0;"/><text fill="#000000" font-family="sans-serif" font-size="13" lengthAdjust="spacing" textLength="8" x="768.1363" y="419.8712">1</text><text fill="#000000" font-family="sans-serif" font-size="13" lengthAdjust="spacing" textLength="8" x="770.3329" y="497.9869">n</text></g><!--MD5=[e63508cd4518266fde4fa6d9a8e929ca]
reverse link Postable to Comment--><g id="link_Postable_Comment"><path codeLine="74" d="M803.48,419.63 C803.67,452.22 802.38,485.48 799.63,508.76 " fill="none" id="Postable-backto-Comment-1" style="stroke:#181818;stroke-width:1.0;"/><polygon fill="none" points="796.48,419.62,803.18,399.52,810.48,419.41,796.48,419.62" style="stroke:#181818;stroke-width:1.0;"/></g><!--MD5=[8012d814a21e1c16d782720e3ba6f27e]
reverse link Postable to Post--><g id="link_Postable_Post"><path codeLine="73" d="M694.14,403.15 C671.6,424.7 647.89,447.37 626.39,467.92 " fill="none" id="Postable-backto-Post" style="stroke:#181818;stroke-width:1.0;"/><polygon fill="none" points="689.46,397.94,708.75,389.18,699.13,408.06,689.46,397.94" style="stroke:#181818;stroke-width:1.0;"/></g><!--MD5=[77330c9a73a6a8c757de47a606975a7b]
@startuml classes
    skinparam classAttributeIconSize 0
    class Auth {
        -username: String
        -password: String
        +boolean isAccountNonExpired()
        +boolean isAccountNonLocked()
        +boolean isCredentialsNonExpired()
        +boolean isEnabled()
    }
    class User {
        -auth: Auth
        -following: List<User>
        -followers: int = 0
        -joinDate: Instant
        +boolean follow(User user)
        +boolean unfollow(User user)
    }
    class Profile {
        -user: User
        -name: String
        -image: String
        -description: String
        -appearanceScore: double
        -intelligenceScore: double
        -characterScore: double
        -humorScore: double
        -responsibilityScore: double
    }
    abstract class Postable {
        -author: User
        -text: String
        -creationDate: Instant
        -likes: int
        -dislikes: int
        -edited: boolean
        +void like()
        +void dislike()
    }
    class Post {
        -profile: Profile
        -image: String
        -visibility: List~User~
        -title: String
        +boolean turnVisibleTo(User user)
        +boolean turnInvisibleTo(User user)
    }
    class Comment {
        -postable: Postable
    }
    class Modification {
        -postable: Postable
        -oldTitle: String
        -oldImage: String
        -oldText: String
        -date: Instant
    }
    class Score {
        -score: int
        -author: User
        -profile: Profile
        -category: String
    }
    User "n" - - "n" User
    User "1" - -o "n" Postable
    User "1" - -o "n" Score
    User "n" - - "n" Post
    User "1" - -o "1" Profile
    User "1" o- - "1" Auth
    Profile "1" *- - "n" Post
    Profile "1" *- - "n" Score
    Postable "1" *- - "n" Modification
    Postable "1" *- - "n" Comment
    Postable <|- - Post
    Postable <|- - Comment
@enduml

PlantUML version 1.2022.7(Mon Aug 22 14:01:30 BRT 2022)
(GPL source distribution)
Java Runtime: Java(TM) SE Runtime Environment
JVM: Java HotSpot(TM) 64-Bit Server VM
Default Encoding: UTF-8
Language: en
Country: US
--></g></svg>