<?xml version="1.0" encoding="UTF-8" standalone="no"?><svg xmlns="http://www.w3.org/2000/svg" xmlns:xlink="http://www.w3.org/1999/xlink" contentStyleType="text/css" height="126px" preserveAspectRatio="none" style="width:278px;height:126px;background:#FFFFFF;" version="1.1" viewBox="0 0 278 126" width="278px" zoomAndPan="magnify"><defs/><g><!--MD5=[fee662a292a0353a69bd162820bae93b]
entity User--><g id="elem_User"><ellipse cx="22" cy="53.01" fill="#F1F1F1" rx="8" ry="8" style="stroke:#181818;stroke-width:0.5;"/><path d="M22,61.01 L22,88.01 M9,69.01 L35,69.01 M22,88.01 L9,103.01 M22,88.01 L35,103.01 " fill="none" style="stroke:#181818;stroke-width:0.5;"/><text fill="#000000" font-family="sans-serif" font-size="14" lengthAdjust="spacing" textLength="32" x="6" y="117.5051">User</text></g><g id="elem_App"><ellipse cx="212.0664" cy="82.2822" fill="#F1F1F1" rx="60.0664" ry="14.7722" style="stroke:#181818;stroke-width:0.5;"/><text fill="#000000" font-family="sans-serif" font-size="14" lengthAdjust="spacing" textLength="67" x="175.5664" y="86.0298">Pentagon</text></g><!--MD5=[97ab183161fd5d1db7fba7485cf76add]
entity Admin--><g id="elem_Admin"><ellipse cx="95" cy="53.01" fill="#F1F1F1" rx="8" ry="8" style="stroke:#181818;stroke-width:0.5;"/><path d="M95,61.01 L95,88.01 M82,69.01 L108,69.01 M95,88.01 L82,103.01 M95,88.01 L108,103.01 " fill="none" style="stroke:#181818;stroke-width:0.5;"/><text fill="#000000" font-family="sans-serif" font-size="14" lengthAdjust="spacing" textLength="43" x="73.5" y="117.5051">Admin</text></g><!--MD5=[0214f9738810ef8e203a2a515b7b8642]
link User to App--><g id="link_User_App"><path d="M38,49.89 C46.52,36.33 58.38,22.02 73.5,14.51 C90.61,6 98.3,8.69 116.5,14.51 C146.96,24.25 176,47.65 193.9,64.27 " fill="none" id="User-to-App" style="stroke:#181818;stroke-width:1.0;"/><polygon fill="#181818" points="197.76,67.92,193.9477,58.8389,194.119,64.4932,188.4647,64.6645,197.76,67.92" style="stroke:#181818;stroke-width:1.0;"/></g><!--MD5=[87d899974990c3342cdff562acf46eb6]
link Admin to App--><g id="link_Admin_App"><path d="M116.94,82.51 C126.85,82.51 136.75,82.51 146.66,82.51 " fill="none" id="Admin-to-App" style="stroke:#181818;stroke-width:1.0;"/><polygon fill="#181818" points="151.84,82.51,142.84,78.51,146.84,82.51,142.84,86.51,151.84,82.51" style="stroke:#181818;stroke-width:1.0;"/></g><!--MD5=[76dc311add0524c898bec3bab0348caa]
@startuml actors
:User: -> (App)
:Admin: -> (App)
"Pentagon" as (App)
@enduml

PlantUML version 1.2022.7(Mon Aug 22 14:01:30 BRT 2022)
(GPL source distribution)
Java Runtime: Java(TM) SE Runtime Environment
JVM: Java HotSpot(TM) 64-Bit Server VM
Default Encoding: UTF-8
Language: en
Country: US
--></g></svg>