<?xml version="1.0" encoding="UTF-8" standalone="no"?><svg xmlns="http://www.w3.org/2000/svg" xmlns:xlink="http://www.w3.org/1999/xlink" contentStyleType="text/css" height="1529px" preserveAspectRatio="none" style="width:1957px;height:1529px;background:#FFFFFF;" version="1.1" viewBox="0 0 1957 1529" width="1957px" zoomAndPan="magnify"><defs/><g><!--MD5=[fee662a292a0353a69bd162820bae93b]
entity User--><g id="elem_User"><ellipse cx="22" cy="813" fill="#F1F1F1" rx="8" ry="8" style="stroke:#181818;stroke-width:0.5;"/><path d="M22,821 L22,848 M9,829 L35,829 M22,848 L9,863 M22,848 L35,863 " fill="none" style="stroke:#181818;stroke-width:0.5;"/><text fill="#000000" font-family="sans-serif" font-size="14" lengthAdjust="spacing" textLength="32" x="6" y="877.4951">User</text></g><g id="elem_U1"><ellipse cx="1885.4626" cy="390.6925" fill="#F1F1F1" rx="66.4626" ry="15.6925" style="stroke:#181818;stroke-width:0.5;"/><text fill="#000000" font-family="sans-serif" font-size="14" lengthAdjust="spacing" textLength="83" x="1840.9626" y="394.4401">UC01. Login</text></g><g id="elem_U2"><ellipse cx="1590.0751" cy="390.715" fill="#F1F1F1" rx="104.0751" ry="23.215" style="stroke:#181818;stroke-width:0.5;"/><text fill="#000000" font-family="sans-serif" font-size="14" lengthAdjust="spacing" textLength="173" x="1503.5751" y="393.5617">UC02. Selecionar usuário</text></g><g id="elem_U3"><ellipse cx="213.0203" cy="181.3041" fill="#F1F1F1" rx="99.5203" ry="22.3041" style="stroke:#181818;stroke-width:0.5;"/><text fill="#000000" font-family="sans-serif" font-size="14" lengthAdjust="spacing" textLength="163" x="131.5203" y="184.1507">UC03. Gerenciar página</text></g><g id="elem_U4"><ellipse cx="725.7923" cy="96.2585" fill="#F1F1F1" rx="101.7923" ry="22.7585" style="stroke:#181818;stroke-width:0.5;"/><text fill="#000000" font-family="sans-serif" font-size="14" lengthAdjust="spacing" textLength="168" x="641.7923" y="99.1051">UC04. Renomear página</text></g><g id="elem_U5"><ellipse cx="725.9902" cy="181.2793" fill="#F1F1F1" rx="117.9902" ry="26.2793" style="stroke:#181818;stroke-width:0.5;"/><text fill="#000000" font-family="sans-serif" font-size="14" lengthAdjust="spacing" textLength="149" x="648.4902" y="176.8784">UC05. Alterar imagem</text><text fill="#000000" font-family="sans-serif" font-size="14" lengthAdjust="spacing" textLength="67" x="689.4902" y="193.1753">da página</text></g><g id="elem_U6"><ellipse cx="725.8596" cy="270.4719" fill="#F1F1F1" rx="122.8596" ry="26.9719" style="stroke:#181818;stroke-width:0.5;"/><text fill="#000000" font-family="sans-serif" font-size="14" lengthAdjust="spacing" textLength="161" x="642.3596" y="266.071">UC06. Alterar descrição</text><text fill="#000000" font-family="sans-serif" font-size="14" lengthAdjust="spacing" textLength="67" x="689.3596" y="282.3679">da página</text></g><g id="elem_U7"><ellipse cx="454.6163" cy="371.7233" fill="#F1F1F1" rx="94.1163" ry="21.2233" style="stroke:#181818;stroke-width:0.5;"/><text fill="#000000" font-family="sans-serif" font-size="14" lengthAdjust="spacing" textLength="151" x="379.1163" y="374.5699">UC07. Criar postagem</text></g><g id="elem_U8"><ellipse cx="1247.8359" cy="507.4672" fill="#F1F1F1" rx="112.8359" ry="24.9672" style="stroke:#181818;stroke-width:0.5;"/><text fill="#000000" font-family="sans-serif" font-size="14" lengthAdjust="spacing" textLength="192" x="1151.8359" y="510.3139">UC08. Selecionar postagem</text></g><g id="elem_U9"><ellipse cx="454.3093" cy="441.2619" fill="#F1F1F1" rx="96.8093" ry="21.7619" style="stroke:#181818;stroke-width:0.5;"/><text fill="#000000" font-family="sans-serif" font-size="14" lengthAdjust="spacing" textLength="157" x="375.8093" y="444.1085">UC09. Curtir postagem</text></g><g id="elem_U10"><ellipse cx="213.0183" cy="687.5037" fill="#F1F1F1" rx="110.5183" ry="24.5037" style="stroke:#181818;stroke-width:0.5;"/><text fill="#000000" font-family="sans-serif" font-size="14" lengthAdjust="spacing" textLength="187" x="119.5183" y="690.3503">UC10. Gerenciar postagem</text></g><g id="elem_U11"><ellipse cx="726.211" cy="599.4422" fill="#F1F1F1" rx="97.711" ry="21.9422" style="stroke:#181818;stroke-width:0.5;"/><text fill="#000000" font-family="sans-serif" font-size="14" lengthAdjust="spacing" textLength="159" x="646.711" y="602.2889">UC11. Editar postagem</text></g><g id="elem_U12"><ellipse cx="726.0139" cy="687.7028" fill="#F1F1F1" rx="144.0139" ry="31.2028" style="stroke:#181818;stroke-width:0.5;"/><text fill="#000000" font-family="sans-serif" font-size="14" lengthAdjust="spacing" textLength="258" x="597.0139" y="690.5495">UC12. Editar visibilidade da postagem</text></g><g id="elem_U13"><ellipse cx="726.209" cy="777.5418" fill="#F1F1F1" rx="108.209" ry="24.0418" style="stroke:#181818;stroke-width:0.5;"/><text fill="#000000" font-family="sans-serif" font-size="14" lengthAdjust="spacing" textLength="182" x="635.209" y="780.3885">UC13. Remover postagem</text></g><g id="elem_U14"><ellipse cx="454.711" cy="847.4422" fill="#F1F1F1" rx="97.711" ry="21.9422" style="stroke:#181818;stroke-width:0.5;"/><text fill="#000000" font-family="sans-serif" font-size="14" lengthAdjust="spacing" textLength="159" x="375.211" y="850.2889">UC14. Criar comentário</text></g><g id="elem_U15"><ellipse cx="726.0602" cy="949.712" fill="#F1F1F1" rx="116.5602" ry="25.712" style="stroke:#181818;stroke-width:0.5;"/><text fill="#000000" font-family="sans-serif" font-size="14" lengthAdjust="spacing" textLength="200" x="626.0602" y="952.5587">UC15. Selecionar comentário</text></g><g id="elem_U16"><ellipse cx="212.9278" cy="918.4856" fill="#F1F1F1" rx="100.4278" ry="22.4856" style="stroke:#181818;stroke-width:0.5;"/><text fill="#000000" font-family="sans-serif" font-size="14" lengthAdjust="spacing" textLength="165" x="130.4278" y="921.3322">UC16. Curtir comentário</text></g><g id="elem_U17"><ellipse cx="213.2303" cy="1017.7461" fill="#F1F1F1" rx="114.2303" ry="25.2461" style="stroke:#181818;stroke-width:0.5;"/><text fill="#000000" font-family="sans-serif" font-size="14" lengthAdjust="spacing" textLength="195" x="115.7303" y="1020.5927">UC17. Gerenciar comentário</text></g><g id="elem_U18"><ellipse cx="725.8371" cy="1032.6674" fill="#F1F1F1" rx="101.3371" ry="22.6674" style="stroke:#181818;stroke-width:0.5;"/><text fill="#000000" font-family="sans-serif" font-size="14" lengthAdjust="spacing" textLength="167" x="642.3371" y="1035.5141">UC18. Editar comentário</text></g><g id="elem_U19"><ellipse cx="725.9079" cy="1115.2816" fill="#F1F1F1" rx="111.9079" ry="24.7816" style="stroke:#181818;stroke-width:0.5;"/><text fill="#000000" font-family="sans-serif" font-size="14" lengthAdjust="spacing" textLength="190" x="630.9079" y="1118.1283">UC19. Remover comentário</text></g><g id="elem_U20"><ellipse cx="1002.7042" cy="1102.4408" fill="#F1F1F1" rx="102.7042" ry="22.9408" style="stroke:#181818;stroke-width:0.5;"/><text fill="#000000" font-family="sans-serif" font-size="14" lengthAdjust="spacing" textLength="170" x="917.7042" y="1105.2875">UC20. Avaliar um usuário</text></g><g id="elem_U21"><ellipse cx="212.7923" cy="1347.2585" fill="#F1F1F1" rx="101.7923" ry="22.7585" style="stroke:#181818;stroke-width:0.5;"/><text fill="#000000" font-family="sans-serif" font-size="14" lengthAdjust="spacing" textLength="168" x="128.7923" y="1350.1051">UC21. Gerenciar usuário</text></g><g id="elem_U22"><ellipse cx="725.9738" cy="1269.3948" fill="#F1F1F1" rx="99.9738" ry="22.3948" style="stroke:#181818;stroke-width:0.5;"/><text fill="#000000" font-family="sans-serif" font-size="14" lengthAdjust="spacing" textLength="164" x="643.9738" y="1272.2414">UC22. Alterar username</text></g><g id="elem_U23"><ellipse cx="725.9128" cy="1347.4826" fill="#F1F1F1" rx="87.9128" ry="19.9826" style="stroke:#181818;stroke-width:0.5;"/><text fill="#000000" font-family="sans-serif" font-size="14" lengthAdjust="spacing" textLength="137" x="657.4128" y="1350.3292">UC23. Alterar senha</text></g><g id="elem_U24"><ellipse cx="725.9278" cy="1425.4856" fill="#F1F1F1" rx="100.4278" ry="22.4856" style="stroke:#181818;stroke-width:0.5;"/><text fill="#000000" font-family="sans-serif" font-size="14" lengthAdjust="spacing" textLength="165" x="643.4278" y="1428.3322">UC24. Desativar usuário</text></g><g id="elem_U25"><ellipse cx="725.8518" cy="1503.5704" fill="#F1F1F1" rx="88.3518" ry="20.0704" style="stroke:#181818;stroke-width:0.5;"/><text fill="#000000" font-family="sans-serif" font-size="14" lengthAdjust="spacing" textLength="138" x="656.8518" y="1506.417">UC25. Ativar usuário</text></g><!--MD5=[36ae9b4624afb939b48e1dbbfe5f431c]
link User to U3--><g id="link_User_U3"><path d="M22.3,804.24 C22.04,731.39 26.64,568.55 68,439.5 C97.19,348.4 160.27,253.12 192.37,208.09 " fill="none" id="User-to-U3" style="stroke:#000000;stroke-width:1.0;"/><polygon fill="#000000" points="195.38,203.89,186.9006,208.8999,192.4792,207.9625,193.4166,213.5412,195.38,203.89" style="stroke:#000000;stroke-width:1.0;"/></g><!--MD5=[7e1d260b0ccab459ebb7478dbbf8e6e4]
link User to U7--><g id="link_User_U7"><path d="M23.52,804.29 C26.21,743.61 39.37,624.13 99,546.5 C168.86,455.56 298.54,408.78 380.19,387.26 " fill="none" id="User-to-U7" style="stroke:#000000;stroke-width:1.0;"/><polygon fill="#000000" points="385.5,385.88,375.7837,384.2697,380.6604,387.1363,377.7938,392.013,385.5,385.88" style="stroke:#000000;stroke-width:1.0;"/></g><!--MD5=[f53816a94524a0f3bdc61c0779d2437a]
link User to U9--><g id="link_User_U9"><path d="M30.19,804.41 C39.8,761.85 60.32,692.71 99,645.5 C185.11,540.4 236.46,544.19 357,481.5 C370.3,474.58 385.07,467.96 398.98,462.17 " fill="none" id="User-to-U9" style="stroke:#000000;stroke-width:1.0;"/><polygon fill="#000000" points="403.66,460.24,393.8149,459.968,399.0366,462.1437,396.8609,467.3655,403.66,460.24" style="stroke:#000000;stroke-width:1.0;"/></g><!--MD5=[2628cf21d63148fd15b13507b250e7cb]
link User to U10--><g id="link_User_U10"><path d="M38.15,830.08 C68.61,805.09 137.9,748.27 179.22,714.38 " fill="none" id="User-to-U10" style="stroke:#000000;stroke-width:1.0;"/><polygon fill="#000000" points="183.13,711.18,173.6377,713.8062,179.2679,714.3555,178.7186,719.9857,183.13,711.18" style="stroke:#000000;stroke-width:1.0;"/></g><!--MD5=[ca5bf99f88b855f6f81dffc4092f507c]
link User to U14--><g id="link_User_U14"><path d="M38.07,842.68 C87.14,843.25 245.34,845.08 351.73,846.32 " fill="none" id="User-to-U14" style="stroke:#000000;stroke-width:1.0;"/><polygon fill="#000000" points="356.76,846.38,347.8063,842.2774,351.7603,846.3229,347.7149,850.2769,356.76,846.38" style="stroke:#000000;stroke-width:1.0;"/></g><!--MD5=[822810c2bc5e1a2e613cd741420621a9]
link User to U16--><g id="link_User_U16"><path d="M38.03,852.15 C46.6,857.4 57.66,863.77 68,868.5 C93.27,880.06 122.03,890.55 147.18,898.9 " fill="none" id="User-to-U16" style="stroke:#000000;stroke-width:1.0;"/><polygon fill="#000000" points="152.15,900.54,144.8409,893.9387,147.3981,898.9846,142.3522,901.5418,152.15,900.54" style="stroke:#000000;stroke-width:1.0;"/></g><!--MD5=[092230405083854a649ca4b7e4c7ed9c]
link User to U17--><g id="link_User_U17"><path d="M38.07,874.24 C51.32,899.55 72.59,934.58 99,958.5 C114.5,972.54 133.95,984.25 152.33,993.44 " fill="none" id="User-to-U17" style="stroke:#000000;stroke-width:1.0;"/><polygon fill="#000000" points="156.97,995.73,150.6703,988.1595,152.4865,993.5168,147.1291,995.3331,156.97,995.73" style="stroke:#000000;stroke-width:1.0;"/></g><!--MD5=[c0ae880dbbbc5138c65e83e32b85af31]
link User to U20--><g id="link_User_U20"><path d="M25.24,880.56 C30.26,929.53 46.5,1013.72 99,1059.5 C359.36,1286.5 531.33,1225.47 870,1157.5 C900.49,1151.38 932.74,1138.01 957.67,1125.99 " fill="none" id="User-to-U20" style="stroke:#000000;stroke-width:1.0;"/><polygon fill="#000000" points="962.24,1123.76,952.3977,1124.1194,957.7481,1125.9561,955.9114,1131.3064,962.24,1123.76" style="stroke:#000000;stroke-width:1.0;"/></g><!--MD5=[f312e0277297aa991a5d1a70cbdbf534]
link User to U21--><g id="link_User_U21"><path d="M24.15,880.65 C27.21,964.33 37.51,1161.15 68,1219.5 C91.35,1264.19 137.12,1300.63 170.82,1323.04 " fill="none" id="User-to-U21" style="stroke:#000000;stroke-width:1.0;"/><polygon fill="#000000" points="175.29,1325.97,169.9546,1317.6915,171.1079,1323.2295,165.5699,1324.3828,175.29,1325.97" style="stroke:#000000;stroke-width:1.0;"/></g><!--MD5=[2478700edf68dfa16a8dd583bc136a2e]
link U2 to U1--><g id="link_U2_U1"><path d="M1694.06,390.5 C1733.58,390.5 1777.74,390.5 1813.59,390.5 " fill="none" id="U2-to-U1" style="stroke:#181818;stroke-width:1.0;stroke-dasharray:7.0,7.0;"/><polygon fill="#181818" points="1818.81,390.5,1809.81,386.5,1813.81,390.5,1809.81,394.5,1818.81,390.5" style="stroke:#181818;stroke-width:1.0;"/><text fill="#000000" font-family="sans-serif" font-size="13" lengthAdjust="spacing" textLength="63" x="1725" y="386.5669">«inherits»</text></g><!--MD5=[10da105bb49d4f2a32c20f36826de769]
link U3 to U2--><g id="link_U3_U2"><path d="M244.95,160.11 C273,141.69 316.09,115.73 357,100.5 C571.49,20.65 646.54,6 870,55.5 C1149.2,117.35 1448.55,299.29 1551.64,365.8 " fill="none" id="U3-to-U2" style="stroke:#181818;stroke-width:1.0;stroke-dasharray:7.0,7.0;"/><polygon fill="#181818" points="1556.11,368.68,1550.7222,360.4355,1551.9106,365.9661,1546.38,367.1545,1556.11,368.68" style="stroke:#181818;stroke-width:1.0;"/><text fill="#000000" font-family="sans-serif" font-size="13" lengthAdjust="spacing" textLength="63" x="971" y="59.5669">«inherits»</text></g><!--MD5=[2a4fc7ff774d8a92ab3cb5852221cfb4]
reverse link U3 to U4--><g id="link_U3_U4"><path d="M296.88,166.84 C316.58,163.41 337.53,159.79 357,156.5 C454.98,139.95 567.77,121.67 642.38,109.69 " fill="none" id="U3-backto-U4" style="stroke:#181818;stroke-width:1.0;stroke-dasharray:7.0,7.0;"/><polygon fill="#181818" points="291.9,167.71,301.459,170.0819,296.8236,166.8394,300.0661,162.2041,291.9,167.71" style="stroke:#181818;stroke-width:1.0;"/><text fill="#000000" font-family="sans-serif" font-size="13" lengthAdjust="spacing" textLength="67" x="421" y="121.5669">«extends»</text></g><!--MD5=[7e0adb14443e8fdd691d84cf80511718]
reverse link U3 to U5--><g id="link_U3_U5"><path d="M317.76,181.5 C401.9,181.5 520.46,181.5 607.97,181.5 " fill="none" id="U3-backto-U5" style="stroke:#181818;stroke-width:1.0;stroke-dasharray:7.0,7.0;"/><polygon fill="#181818" points="312.53,181.5,321.53,185.5,317.53,181.5,321.53,177.5,312.53,181.5" style="stroke:#181818;stroke-width:1.0;"/><text fill="#000000" font-family="sans-serif" font-size="13" lengthAdjust="spacing" textLength="67" x="421" y="177.5669">«extends»</text></g><!--MD5=[ebe9c9ccd0af6b09c2f9834a8b82dcbe]
reverse link U3 to U6--><g id="link_U3_U6"><path d="M297.25,196.07 C316.85,199.49 337.66,203.13 357,206.5 C449.31,222.6 554.66,240.91 628.92,253.81 " fill="none" id="U3-backto-U6" style="stroke:#181818;stroke-width:1.0;stroke-dasharray:7.0,7.0;"/><polygon fill="#181818" points="292.3,195.2,300.4815,200.6829,297.2261,196.0567,301.8523,192.8012,292.3,195.2" style="stroke:#181818;stroke-width:1.0;"/><text fill="#000000" font-family="sans-serif" font-size="13" lengthAdjust="spacing" textLength="67" x="421" y="202.5669">«extends»</text></g><!--MD5=[2d19a98bfe4d20c2b5dabcda2fb3c824]
link U7 to U2--><g id="link_U7_U2"><path d="M548.26,373.05 C756.27,376.54 1259.06,384.97 1480.83,388.69 " fill="none" id="U7-to-U2" style="stroke:#181818;stroke-width:1.0;stroke-dasharray:7.0,7.0;"/><polygon fill="#181818" points="1486.01,388.77,1477.0681,384.6418,1481.0105,388.6986,1476.9538,392.641,1486.01,388.77" style="stroke:#181818;stroke-width:1.0;"/><text fill="#000000" font-family="sans-serif" font-size="13" lengthAdjust="spacing" textLength="63" x="971" y="375.5669">«inherits»</text></g><!--MD5=[e5b7d8f60c120f8fcf63ae7fb040990d]
link U8 to U2--><g id="link_U8_U2"><path d="M1310.18,486.45 C1371.85,465.22 1466.5,432.65 1528.08,411.46 " fill="none" id="U8-to-U2" style="stroke:#181818;stroke-width:1.0;stroke-dasharray:7.0,7.0;"/><polygon fill="#181818" points="1532.83,409.83,1523.018,408.9788,1528.1025,411.4582,1525.6231,416.5427,1532.83,409.83" style="stroke:#181818;stroke-width:1.0;"/><text fill="#000000" font-family="sans-serif" font-size="13" lengthAdjust="spacing" textLength="63" x="1392" y="435.5669">«inherits»</text></g><!--MD5=[743bb2bdd15339b6af35831a4a3aa1c5]
link U9 to U8--><g id="link_U9_U8"><path d="M551.02,443.81 C677.96,447.7 909.03,457.61 1105,481.5 C1122.62,483.65 1141.37,486.6 1159.26,489.74 " fill="none" id="U9-to-U8" style="stroke:#181818;stroke-width:1.0;stroke-dasharray:7.0,7.0;"/><polygon fill="#181818" points="1164.28,490.63,1156.1167,485.12,1159.3568,489.757,1154.7198,492.9971,1164.28,490.63" style="stroke:#181818;stroke-width:1.0;"/><text fill="#000000" font-family="sans-serif" font-size="13" lengthAdjust="spacing" textLength="63" x="694.5" y="441.5669">«inherits»</text></g><!--MD5=[8a80a1591c95776e817d7fffd0960e7e]
link U10 to U8--><g id="link_U10_U8"><path d="M294.99,671 C306.4,666.5 317.48,660.77 327,653.5 C346.99,638.23 336.34,619.85 357,605.5 C479.35,520.54 917.29,507.87 1129.75,506.86 " fill="none" id="U10-to-U8" style="stroke:#181818;stroke-width:1.0;stroke-dasharray:7.0,7.0;"/><polygon fill="#181818" points="1135.03,506.84,1126.0073,502.8915,1130.0301,506.8686,1126.053,510.8914,1135.03,506.84" style="stroke:#181818;stroke-width:1.0;"/><text fill="#000000" font-family="sans-serif" font-size="13" lengthAdjust="spacing" textLength="63" x="694.5" y="510.5669">«inherits»</text></g><!--MD5=[f41739cddb36bc3e7054e58c069434cc]
reverse link U10 to U11--><g id="link_U10_U11"><path d="M305.49,671.46 C322.6,668.47 340.35,665.38 357,662.5 C457.28,645.15 572.97,625.39 647.45,612.69 " fill="none" id="U10-backto-U11" style="stroke:#181818;stroke-width:1.0;stroke-dasharray:7.0,7.0;"/><polygon fill="#181818" points="300.2,672.38,309.7534,674.7741,305.1256,671.5209,308.3788,666.8931,300.2,672.38" style="stroke:#181818;stroke-width:1.0;"/><text fill="#000000" font-family="sans-serif" font-size="13" lengthAdjust="spacing" textLength="67" x="421" y="626.5669">«extends»</text></g><!--MD5=[4fe14d62c3eefa8d8106a6453399007a]
reverse link U10 to U12--><g id="link_U10_U12"><path d="M328.96,687.5 C403.71,687.5 501.74,687.5 581.57,687.5 " fill="none" id="U10-backto-U12" style="stroke:#181818;stroke-width:1.0;stroke-dasharray:7.0,7.0;"/><polygon fill="#181818" points="323.62,687.5,332.62,691.5,328.62,687.5,332.62,683.5,323.62,687.5" style="stroke:#181818;stroke-width:1.0;"/><text fill="#000000" font-family="sans-serif" font-size="13" lengthAdjust="spacing" textLength="67" x="421" y="683.5669">«extends»</text></g><!--MD5=[25844728536cb9953ba8c29c85945084]
reverse link U10 to U13--><g id="link_U10_U13"><path d="M305.16,703.56 C400.28,720.31 548.18,746.36 640.67,762.65 " fill="none" id="U10-backto-U13" style="stroke:#181818;stroke-width:1.0;stroke-dasharray:7.0,7.0;"/><polygon fill="#181818" points="300.11,702.67,308.2915,708.1529,305.0361,703.5267,309.6623,700.2712,300.11,702.67" style="stroke:#181818;stroke-width:1.0;"/><text fill="#000000" font-family="sans-serif" font-size="13" lengthAdjust="spacing" textLength="67" x="421" y="710.5669">«extends»</text></g><!--MD5=[8ded911a4bb4d86d8d0afa5acbeb4f70]
link U14 to U8--><g id="link_U14_U8"><path d="M533.45,860.42 C619.15,871.22 759.36,878.73 870,835.5 C1033.28,771.7 1173.68,604.27 1225.59,536.55 " fill="none" id="U14-to-U8" style="stroke:#181818;stroke-width:1.0;stroke-dasharray:7.0,7.0;"/><polygon fill="#181818" points="1228.88,532.23,1220.2418,536.961,1225.8481,536.2058,1226.6032,541.8121,1228.88,532.23" style="stroke:#181818;stroke-width:1.0;"/><text fill="#000000" font-family="sans-serif" font-size="13" lengthAdjust="spacing" textLength="63" x="694.5" y="831.5669">«inherits»</text></g><!--MD5=[b15bc9e6ad4fb12570175e2b1bd203b0]
link U15 to U8--><g id="link_U15_U8"><path d="M821.81,964.16 C907.12,971.6 1030.22,967.15 1105,896.5 C1154.74,849.51 1113.61,810.49 1135,745.5 C1160.81,667.08 1206.03,580.72 1230.36,536.75 " fill="none" id="U15-to-U8" style="stroke:#181818;stroke-width:1.0;stroke-dasharray:7.0,7.0;"/><polygon fill="#181818" points="1232.8,532.37,1224.9326,538.2948,1230.3718,536.7408,1231.9258,542.18,1232.8,532.37" style="stroke:#181818;stroke-width:1.0;"/><text fill="#000000" font-family="sans-serif" font-size="13" lengthAdjust="spacing" textLength="63" x="971" y="892.5669">«inherits»</text></g><!--MD5=[57b83175c19dbe406e9d022d0743d89c]
link U16 to U15--><g id="link_U16_U15"><path d="M310.12,924.33 C394.67,929.46 518,936.94 608.22,942.42 " fill="none" id="U16-to-U15" style="stroke:#181818;stroke-width:1.0;stroke-dasharray:7.0,7.0;"/><polygon fill="#181818" points="613.3,942.72,604.5557,938.1882,608.309,942.4205,604.0766,946.1738,613.3,942.72" style="stroke:#181818;stroke-width:1.0;"/><text fill="#000000" font-family="sans-serif" font-size="13" lengthAdjust="spacing" textLength="63" x="423" y="924.5669">«inherits»</text></g><!--MD5=[78f1e2020e0c75b4665f66a3327ff0d8]
link U17 to U15--><g id="link_U17_U15"><path d="M311.02,1004.59 C399.51,992.81 529.92,975.46 620.65,963.39 " fill="none" id="U17-to-U15" style="stroke:#181818;stroke-width:1.0;stroke-dasharray:7.0,7.0;"/><polygon fill="#181818" points="625.75,962.71,616.3024,959.9274,620.7934,963.3671,617.3537,967.858,625.75,962.71" style="stroke:#181818;stroke-width:1.0;"/><text fill="#000000" font-family="sans-serif" font-size="13" lengthAdjust="spacing" textLength="63" x="423" y="969.5669">«inherits»</text></g><!--MD5=[3ec0946748974653dd519aa22aac6bb9]
reverse link U17 to U18--><g id="link_U17_U18"><path d="M314.12,1031.72 C328.48,1033.29 343.1,1034.63 357,1035.5 C448.19,1041.22 552.33,1039.61 626.5,1037.08 " fill="none" id="U17-backto-U18" style="stroke:#181818;stroke-width:1.0;stroke-dasharray:7.0,7.0;"/><polygon fill="#181818" points="308.84,1031.13,317.3385,1036.1075,313.8089,1031.6869,318.2295,1028.1572,308.84,1031.13" style="stroke:#181818;stroke-width:1.0;"/><text fill="#000000" font-family="sans-serif" font-size="13" lengthAdjust="spacing" textLength="67" x="421" y="1031.5669">«extends»</text></g><!--MD5=[12ded33f05477a1f4b389899fcbc341a]
reverse link U17 to U19--><g id="link_U17_U19"><path d="M276.33,1040.69 C301.15,1049.21 330.15,1058.28 357,1064.5 C445.28,1084.95 547.51,1098.32 621.78,1106.21 " fill="none" id="U17-backto-U19" style="stroke:#181818;stroke-width:1.0;stroke-dasharray:7.0,7.0;"/><polygon fill="#181818" points="271.43,1038.99,278.6369,1045.7027,276.1575,1040.6182,281.242,1038.1388,271.43,1038.99" style="stroke:#181818;stroke-width:1.0;"/><text fill="#000000" font-family="sans-serif" font-size="13" lengthAdjust="spacing" textLength="67" x="421" y="1060.5669">«extends»</text></g><!--MD5=[e255c2aff55912069561e125b8ec8ec6]
link U20 to U2--><g id="link_U20_U2"><path d="M1022.32,1079.62 C1109.46,973.64 1473.55,530.89 1567.04,417.2 " fill="none" id="U20-to-U2" style="stroke:#181818;stroke-width:1.0;stroke-dasharray:7.0,7.0;"/><polygon fill="#181818" points="1570.25,413.3,1561.4524,417.7274,1567.0815,417.1679,1567.641,422.797,1570.25,413.3" style="stroke:#181818;stroke-width:1.0;"/><text fill="#000000" font-family="sans-serif" font-size="13" lengthAdjust="spacing" textLength="63" x="1216.5" y="667.5669">«inherits»</text></g><!--MD5=[fc452e99b3d37754beb102b122f02097]
reverse link U21 to U22--><g id="link_U21_U22"><path d="M298.72,1332.26 C317.87,1328.93 338.12,1325.51 357,1322.5 C453.73,1307.08 565.09,1291.32 639.75,1281.04 " fill="none" id="U21-backto-U22" style="stroke:#181818;stroke-width:1.0;stroke-dasharray:7.0,7.0;"/><polygon fill="#181818" points="293.35,1333.19,302.9023,1335.5888,298.2761,1332.3333,301.5315,1327.7071,293.35,1333.19" style="stroke:#181818;stroke-width:1.0;"/><text fill="#000000" font-family="sans-serif" font-size="13" lengthAdjust="spacing" textLength="67" x="421" y="1290.5669">«extends»</text></g><!--MD5=[eebfbca31c74dd5ffdf990c6d7e0b854]
reverse link U21 to U23--><g id="link_U21_U23"><path d="M320.27,1347.5 C414.41,1347.5 550.14,1347.5 637.97,1347.5 " fill="none" id="U21-backto-U23" style="stroke:#181818;stroke-width:1.0;stroke-dasharray:7.0,7.0;"/><polygon fill="#181818" points="315.26,1347.5,324.26,1351.5,320.26,1347.5,324.26,1343.5,315.26,1347.5" style="stroke:#181818;stroke-width:1.0;"/><text fill="#000000" font-family="sans-serif" font-size="13" lengthAdjust="spacing" textLength="67" x="421" y="1343.5669">«extends»</text></g><!--MD5=[ed1f78e831e7e33cb8c661a7d47d1525]
reverse link U21 to U24--><g id="link_U21_U24"><path d="M298.72,1362.74 C317.87,1366.07 338.12,1369.49 357,1372.5 C453.57,1387.89 564.72,1403.63 639.38,1413.91 " fill="none" id="U21-backto-U24" style="stroke:#181818;stroke-width:1.0;stroke-dasharray:7.0,7.0;"/><polygon fill="#181818" points="293.35,1361.81,301.5315,1367.2929,298.2761,1362.6667,302.9023,1359.4112,293.35,1361.81" style="stroke:#181818;stroke-width:1.0;"/><text fill="#000000" font-family="sans-serif" font-size="13" lengthAdjust="spacing" textLength="67" x="421" y="1368.5669">«extends»</text></g><!--MD5=[59f9f03f844002f741b49172107d7b9f]
reverse link U21 to U25--><g id="link_U21_U25"><path d="M251.13,1372.06 C279.16,1389.59 319.14,1412.44 357,1426.5 C453.84,1462.45 571.57,1483.38 647.37,1494.12 " fill="none" id="U21-backto-U25" style="stroke:#181818;stroke-width:1.0;stroke-dasharray:7.0,7.0;"/><polygon fill="#181818" points="246.73,1369.3,252.2024,1377.4886,250.9571,1371.9705,256.4752,1370.7252,246.73,1369.3" style="stroke:#181818;stroke-width:1.0;"/><text fill="#000000" font-family="sans-serif" font-size="13" lengthAdjust="spacing" textLength="67" x="421" y="1422.5669">«extends»</text></g><!--MD5=[6cd120efe8a1bcf866add571a00d0724]
@startuml usecase

left to right direction

actor User

usecase "UC01. Login" as U1
usecase "UC02. Selecionar usuário" as U2

usecase "UC03. Gerenciar página" as U3
usecase "UC04. Renomear página" as U4
usecase "UC05. Alterar imagem\nda página" as U5
usecase "UC06. Alterar descrição\nda página" as U6

usecase "UC07. Criar postagem" as U7
usecase "UC08. Selecionar postagem" as U8
usecase "UC09. Curtir postagem" as U9

usecase "UC10. Gerenciar postagem" as U10
usecase "UC11. Editar postagem" as U11
usecase "UC12. Editar visibilidade da postagem" as U12
usecase "UC13. Remover postagem" as U13

usecase "UC14. Criar comentário" as U14
usecase "UC15. Selecionar comentário" as U15
usecase "UC16. Curtir comentário" as U16

usecase "UC17. Gerenciar comentário" as U17
usecase "UC18. Editar comentário" as U18
usecase "UC19. Remover comentário" as U19

usecase "UC20. Avaliar um usuário" as U20

usecase "UC21. Gerenciar usuário" as U21
usecase "UC22. Alterar username" as U22
usecase "UC23. Alterar senha" as U23
usecase "UC24. Desativar usuário" as U24
usecase "UC25. Ativar usuário" as U25

User -[#black]-> U3
User -[#black]-> U7
User -[#black]-> U9
User -[#black]-> U10
User -[#black]-> U14
User -[#black]-> U16
User -[#black]-> U17
User -[#black]-> U20
User -[#black]-> U21

U2 ..> U1 : <<inherits>>

U3 ..> U2 : <<inherits>>

U3 <.. U4 : <<extends>>
U3 <.. U5 : <<extends>>
U3 <.. U6 : <<extends>>

U7 ..> U2 : <<inherits>>
U8 ..> U2 : <<inherits>>

U9 ..> U8 : <<inherits>>
U10 ..> U8 : <<inherits>>

U10 <.. U11 : <<extends>>
U10 <.. U12 : <<extends>>
U10 <.. U13 : <<extends>>

U14 ..> U8 : <<inherits>>
U15 ..> U8 : <<inherits>>
U16 ..> U15 : <<inherits>>
U17 ..> U15 : <<inherits>>

U17 <.. U18 : <<extends>>
U17 <.. U19 : <<extends>>

U20 ..> U2 : <<inherits>>

U21 <.. U22 : <<extends>>
U21 <.. U23 : <<extends>>
U21 <.. U24 : <<extends>>
U21 <.. U25 : <<extends>>
@enduml

PlantUML version 1.2022.7(Mon Aug 22 14:01:30 BRT 2022)
(GPL source distribution)
Java Runtime: Java(TM) SE Runtime Environment
JVM: Java HotSpot(TM) 64-Bit Server VM
Default Encoding: UTF-8
Language: en
Country: US
--></g></svg>