<?xml version="1.0" encoding="UTF-8" standalone="no"?><svg xmlns="http://www.w3.org/2000/svg" xmlns:xlink="http://www.w3.org/1999/xlink" contentStyleType="text/css" height="177px" preserveAspectRatio="none" style="width:132px;height:177px;background:#FFFFFF;" version="1.1" viewBox="0 0 132 177" width="132px" zoomAndPan="magnify"><defs/><g><!--MD5=[fee662a292a0353a69bd162820bae93b]
entity User--><g id="elem_User"><ellipse cx="30" cy="14" fill="#F1F1F1" rx="8" ry="8" style="stroke:#181818;stroke-width:0.5;"/><path d="M30,22 L30,49 M17,30 L43,30 M30,49 L17,64 M30,49 L43,64 " fill="none" style="stroke:#181818;stroke-width:0.5;"/><text fill="#000000" font-family="sans-serif" font-size="14" lengthAdjust="spacing" textLength="32" x="14" y="78.4951">User</text></g><g id="elem_App"><ellipse cx="66.0664" cy="156.2722" fill="#F1F1F1" rx="60.0664" ry="14.7722" style="stroke:#181818;stroke-width:0.5;"/><text fill="#000000" font-family="sans-serif" font-size="14" lengthAdjust="spacing" textLength="67" x="29.5664" y="160.0198">Pentagon</text></g><!--MD5=[97ab183161fd5d1db7fba7485cf76add]
entity Admin--><g id="elem_Admin"><ellipse cx="103" cy="14" fill="#F1F1F1" rx="8" ry="8" style="stroke:#181818;stroke-width:0.5;"/><path d="M103,22 L103,49 M90,30 L116,30 M103,49 L90,64 M103,49 L116,64 " fill="none" style="stroke:#181818;stroke-width:0.5;"/><text fill="#000000" font-family="sans-serif" font-size="14" lengthAdjust="spacing" textLength="43" x="81.5" y="78.4951">Admin</text></g><!--MD5=[0214f9738810ef8e203a2a515b7b8642]
link User to App--><g id="link_User_App"><path d="M42.09,81.77 C48.07,100.22 55.03,121.69 59.9,136.68 " fill="none" id="User-to-App" style="stroke:#181818;stroke-width:1.0;"/><polygon fill="#181818" points="61.46,141.51,62.4883,131.715,59.9175,136.7539,54.8786,134.183,61.46,141.51" style="stroke:#181818;stroke-width:1.0;"/></g><!--MD5=[87d899974990c3342cdff562acf46eb6]
link Admin to App--><g id="link_Admin_App"><path d="M90.58,81.77 C84.43,100.22 77.27,121.69 72.27,136.68 " fill="none" id="Admin-to-App" style="stroke:#181818;stroke-width:1.0;"/><polygon fill="#181818" points="70.66,141.51,77.3074,134.2428,72.2454,136.768,69.7202,131.7061,70.66,141.51" style="stroke:#181818;stroke-width:1.0;"/></g><!--MD5=[dfdf0a426639d01ced8e7ac5f395c086]
@startuml actors
:User: - -> (App)
:Admin: - -> (App)
"Pentagon" as (App)
@enduml

PlantUML version 1.2022.7(Mon Aug 22 14:01:30 BRT 2022)
(GPL source distribution)
Java Runtime: Java(TM) SE Runtime Environment
JVM: Java HotSpot(TM) 64-Bit Server VM
Default Encoding: UTF-8
Language: en
Country: US
--></g></svg>