<?xml version="1.0" encoding="UTF-8" standalone="no"?><svg xmlns="http://www.w3.org/2000/svg" xmlns:xlink="http://www.w3.org/1999/xlink" contentStyleType="text/css" height="669px" preserveAspectRatio="none" style="width:984px;height:669px;background:#FFFFFF;" version="1.1" viewBox="0 0 984 669" width="984px" zoomAndPan="magnify"><defs/><g><!--MD5=[3fd616f346a44cd59a91eb10b19e157c]
class User--><g id="elem_User"><rect codeLine="2" fill="#F1F1F1" height="194.6719" id="User" rx="2.5" ry="2.5" style="stroke:#181818;stroke-width:0.5;" width="218" x="254" y="7"/><ellipse cx="342.75" cy="23" fill="#ADD1B2" rx="11" ry="11" style="stroke:#181818;stroke-width:1.0;"/><path d="M345.7188,28.6406 Q345.1406,28.9375 344.5,29.0781 Q343.8594,29.2344 343.1563,29.2344 Q340.6563,29.2344 339.3281,27.5938 Q338.0156,25.9375 338.0156,22.8125 Q338.0156,19.6875 339.3281,18.0313 Q340.6563,16.375 343.1563,16.375 Q343.8594,16.375 344.5,16.5313 Q345.1563,16.6875 345.7188,16.9844 L345.7188,19.7031 Q345.0938,19.125 344.5,18.8594 Q343.9063,18.5781 343.2813,18.5781 Q341.9375,18.5781 341.25,19.6563 Q340.5625,20.7188 340.5625,22.8125 Q340.5625,24.9063 341.25,25.9844 Q341.9375,27.0469 343.2813,27.0469 Q343.9063,27.0469 344.5,26.7813 Q345.0938,26.5 345.7188,25.9219 L345.7188,28.6406 Z " fill="#000000"/><text fill="#000000" font-family="sans-serif" font-size="14" lengthAdjust="spacing" textLength="32" x="363.25" y="27.8467">User</text><line style="stroke:#181818;stroke-width:0.5;" x1="255" x2="471" y1="39" y2="39"/><text fill="#000000" font-family="sans-serif" font-size="14" lengthAdjust="spacing" textLength="124" x="260" y="55.9951">-username: String</text><text fill="#000000" font-family="sans-serif" font-size="14" lengthAdjust="spacing" textLength="121" x="260" y="72.292">-password: String</text><text fill="#000000" font-family="sans-serif" font-size="14" lengthAdjust="spacing" textLength="153" x="260" y="88.5889">-following: List&lt;User&gt;</text><text fill="#000000" font-family="sans-serif" font-size="14" lengthAdjust="spacing" textLength="121" x="260" y="104.8857">-followers: int = 0</text><text fill="#000000" font-family="sans-serif" font-size="14" lengthAdjust="spacing" textLength="169" x="260" y="121.1826">-joined: ZonedDateTime</text><text fill="#000000" font-family="sans-serif" font-size="14" lengthAdjust="spacing" textLength="122" x="260" y="137.4795">-isActive: boolean</text><text fill="#000000" font-family="sans-serif" font-size="14" lengthAdjust="spacing" textLength="124" x="260" y="153.7764">-isAdmin: boolean</text><line style="stroke:#181818;stroke-width:0.5;" x1="255" x2="471" y1="161.0781" y2="161.0781"/><text fill="#000000" font-family="sans-serif" font-size="14" lengthAdjust="spacing" textLength="188" x="260" y="178.0732">+boolean follow(User user)</text><text fill="#000000" font-family="sans-serif" font-size="14" lengthAdjust="spacing" textLength="206" x="260" y="194.3701">+boolean unfollow(User user)</text></g><!--MD5=[6a494c20d032ff54e1efa92c1369bc7b]
class Page--><g id="elem_Page"><rect codeLine="13" fill="#F1F1F1" height="129.4844" id="Page" rx="2.5" ry="2.5" style="stroke:#181818;stroke-width:0.5;" width="208" x="145" y="295"/><ellipse cx="227.25" cy="311" fill="#ADD1B2" rx="11" ry="11" style="stroke:#181818;stroke-width:1.0;"/><path d="M230.2188,316.6406 Q229.6406,316.9375 229,317.0781 Q228.3594,317.2344 227.6563,317.2344 Q225.1563,317.2344 223.8281,315.5938 Q222.5156,313.9375 222.5156,310.8125 Q222.5156,307.6875 223.8281,306.0313 Q225.1563,304.375 227.6563,304.375 Q228.3594,304.375 229,304.5313 Q229.6563,304.6875 230.2188,304.9844 L230.2188,307.7031 Q229.5938,307.125 229,306.8594 Q228.4063,306.5781 227.7813,306.5781 Q226.4375,306.5781 225.75,307.6563 Q225.0625,308.7188 225.0625,310.8125 Q225.0625,312.9063 225.75,313.9844 Q226.4375,315.0469 227.7813,315.0469 Q228.4063,315.0469 229,314.7813 Q229.5938,314.5 230.2188,313.9219 L230.2188,316.6406 Z " fill="#000000"/><text fill="#000000" font-family="sans-serif" font-size="14" lengthAdjust="spacing" textLength="35" x="247.75" y="315.8467">Page</text><line style="stroke:#181818;stroke-width:0.5;" x1="146" x2="352" y1="327" y2="327"/><text fill="#000000" font-family="sans-serif" font-size="14" lengthAdjust="spacing" textLength="77" x="151" y="343.9951">-user: User</text><text fill="#000000" font-family="sans-serif" font-size="14" lengthAdjust="spacing" textLength="93" x="151" y="360.292">-name: String</text><text fill="#000000" font-family="sans-serif" font-size="14" lengthAdjust="spacing" textLength="96" x="151" y="376.5889">-image: String</text><text fill="#000000" font-family="sans-serif" font-size="14" lengthAdjust="spacing" textLength="131" x="151" y="392.8857">-description: String</text><text fill="#000000" font-family="sans-serif" font-size="14" lengthAdjust="spacing" textLength="196" x="151" y="409.1826">-scoreMeans: ScoreMean[5]</text><line style="stroke:#181818;stroke-width:0.5;" x1="146" x2="352" y1="416.4844" y2="416.4844"/></g><!--MD5=[2e079e392ada54723ff95dae1718877d]
class Postable--><g id="elem_Postable"><rect codeLine="20" fill="#F1F1F1" height="194.6719" id="Postable" rx="2.5" ry="2.5" style="stroke:#181818;stroke-width:0.5;" width="228" x="597" y="262"/><ellipse cx="678.25" cy="278" fill="#A9DCDF" rx="11" ry="11" style="stroke:#181818;stroke-width:1.0;"/><path d="M678.3594,273.3438 L677.2031,278.4219 L679.5313,278.4219 L678.3594,273.3438 Z M676.875,271.1094 L679.8594,271.1094 L683.2188,283.5 L680.7656,283.5 L680,280.4375 L676.7188,280.4375 L675.9688,283.5 L673.5313,283.5 L676.875,271.1094 Z " fill="#000000"/><text fill="#000000" font-family="sans-serif" font-size="14" font-style="italic" lengthAdjust="spacing" textLength="57" x="698.75" y="283.432">Postable</text><line style="stroke:#181818;stroke-width:0.5;" x1="598" x2="824" y1="294" y2="294"/><text fill="#000000" font-family="sans-serif" font-size="14" lengthAdjust="spacing" textLength="91" x="603" y="310.9951">-author: User</text><text fill="#000000" font-family="sans-serif" font-size="14" lengthAdjust="spacing" textLength="80" x="603" y="327.292">-text: String</text><text fill="#000000" font-family="sans-serif" font-size="14" lengthAdjust="spacing" textLength="216" x="603" y="343.5889">-creationDate: ZonedDateTime</text><text fill="#000000" font-family="sans-serif" font-size="14" lengthAdjust="spacing" textLength="62" x="603" y="359.8857">-likes: int</text><text fill="#000000" font-family="sans-serif" font-size="14" lengthAdjust="spacing" textLength="82" x="603" y="376.1826">-dislikes: int</text><text fill="#000000" font-family="sans-serif" font-size="14" lengthAdjust="spacing" textLength="122" x="603" y="392.4795">-isActive: boolean</text><text fill="#000000" font-family="sans-serif" font-size="14" lengthAdjust="spacing" textLength="125" x="603" y="408.7764">-isEdited: boolean</text><line style="stroke:#181818;stroke-width:0.5;" x1="598" x2="824" y1="416.0781" y2="416.0781"/><text fill="#000000" font-family="sans-serif" font-size="14" lengthAdjust="spacing" textLength="77" x="603" y="433.0732">+void like()</text><text fill="#000000" font-family="sans-serif" font-size="14" lengthAdjust="spacing" textLength="97" x="603" y="449.3701">+void dislike()</text></g><!--MD5=[9bb0bdd047fba1a3c8d48282c35b4537]
class Post--><g id="elem_Post"><rect codeLine="31" fill="#F1F1F1" height="145.7813" id="Post" rx="2.5" ry="2.5" style="stroke:#181818;stroke-width:0.5;" width="261" x="329.5" y="517"/><ellipse cx="440.25" cy="533" fill="#ADD1B2" rx="11" ry="11" style="stroke:#181818;stroke-width:1.0;"/><path d="M443.2188,538.6406 Q442.6406,538.9375 442,539.0781 Q441.3594,539.2344 440.6563,539.2344 Q438.1563,539.2344 436.8281,537.5938 Q435.5156,535.9375 435.5156,532.8125 Q435.5156,529.6875 436.8281,528.0313 Q438.1563,526.375 440.6563,526.375 Q441.3594,526.375 442,526.5313 Q442.6563,526.6875 443.2188,526.9844 L443.2188,529.7031 Q442.5938,529.125 442,528.8594 Q441.4063,528.5781 440.7813,528.5781 Q439.4375,528.5781 438.75,529.6563 Q438.0625,530.7188 438.0625,532.8125 Q438.0625,534.9063 438.75,535.9844 Q439.4375,537.0469 440.7813,537.0469 Q441.4063,537.0469 442,536.7813 Q442.5938,536.5 443.2188,535.9219 L443.2188,538.6406 Z " fill="#000000"/><text fill="#000000" font-family="sans-serif" font-size="14" lengthAdjust="spacing" textLength="31" x="460.75" y="537.8467">Post</text><line style="stroke:#181818;stroke-width:0.5;" x1="330.5" x2="589.5" y1="549" y2="549"/><text fill="#000000" font-family="sans-serif" font-size="14" lengthAdjust="spacing" textLength="91" x="335.5" y="565.9951">-page: Profile</text><text fill="#000000" font-family="sans-serif" font-size="14" lengthAdjust="spacing" textLength="96" x="335.5" y="582.292">-image: String</text><text fill="#000000" font-family="sans-serif" font-size="14" lengthAdjust="spacing" textLength="144" x="335.5" y="598.5889">-visibility: List~User~</text><text fill="#000000" font-family="sans-serif" font-size="14" lengthAdjust="spacing" textLength="79" x="335.5" y="614.8857">-title: String</text><line style="stroke:#181818;stroke-width:0.5;" x1="330.5" x2="589.5" y1="622.1875" y2="622.1875"/><text fill="#000000" font-family="sans-serif" font-size="14" lengthAdjust="spacing" textLength="239" x="335.5" y="639.1826">+boolean turnVisibleTo(User user)</text><text fill="#000000" font-family="sans-serif" font-size="14" lengthAdjust="spacing" textLength="249" x="335.5" y="655.4795">+boolean turnInvisibleTo(User user)</text></g><!--MD5=[042fa140da40c49659127f611bcff931]
class Comment--><g id="elem_Comment"><rect codeLine="39" fill="#F1F1F1" height="64.2969" id="Comment" rx="2.5" ry="2.5" style="stroke:#181818;stroke-width:0.5;" width="146" x="831" y="558"/><ellipse cx="866.7" cy="574" fill="#ADD1B2" rx="11" ry="11" style="stroke:#181818;stroke-width:1.0;"/><path d="M869.6688,579.6406 Q869.0906,579.9375 868.45,580.0781 Q867.8094,580.2344 867.1063,580.2344 Q864.6063,580.2344 863.2781,578.5938 Q861.9656,576.9375 861.9656,573.8125 Q861.9656,570.6875 863.2781,569.0313 Q864.6063,567.375 867.1063,567.375 Q867.8094,567.375 868.45,567.5313 Q869.1063,567.6875 869.6688,567.9844 L869.6688,570.7031 Q869.0438,570.125 868.45,569.8594 Q867.8563,569.5781 867.2313,569.5781 Q865.8875,569.5781 865.2,570.6563 Q864.5125,571.7188 864.5125,573.8125 Q864.5125,575.9063 865.2,576.9844 Q865.8875,578.0469 867.2313,578.0469 Q867.8563,578.0469 868.45,577.7813 Q869.0438,577.5 869.6688,576.9219 L869.6688,579.6406 Z " fill="#000000"/><text fill="#000000" font-family="sans-serif" font-size="14" lengthAdjust="spacing" textLength="68" x="885.3" y="578.8467">Comment</text><line style="stroke:#181818;stroke-width:0.5;" x1="832" x2="976" y1="590" y2="590"/><text fill="#000000" font-family="sans-serif" font-size="14" lengthAdjust="spacing" textLength="134" x="837" y="606.9951">-postable: Postable</text><line style="stroke:#181818;stroke-width:0.5;" x1="832" x2="976" y1="614.2969" y2="614.2969"/></g><!--MD5=[392569bdf4cc06d7d4c14230b81d2d7d]
class Modification--><g id="elem_Modification"><rect codeLine="42" fill="#F1F1F1" height="113.1875" id="Modification" rx="2.5" ry="2.5" style="stroke:#181818;stroke-width:0.5;" width="170" x="626" y="533.5"/><ellipse cx="666.2" cy="549.5" fill="#ADD1B2" rx="11" ry="11" style="stroke:#181818;stroke-width:1.0;"/><path d="M669.1688,555.1406 Q668.5906,555.4375 667.95,555.5781 Q667.3094,555.7344 666.6063,555.7344 Q664.1063,555.7344 662.7781,554.0938 Q661.4656,552.4375 661.4656,549.3125 Q661.4656,546.1875 662.7781,544.5313 Q664.1063,542.875 666.6063,542.875 Q667.3094,542.875 667.95,543.0313 Q668.6063,543.1875 669.1688,543.4844 L669.1688,546.2031 Q668.5438,545.625 667.95,545.3594 Q667.3563,545.0781 666.7313,545.0781 Q665.3875,545.0781 664.7,546.1563 Q664.0125,547.2188 664.0125,549.3125 Q664.0125,551.4063 664.7,552.4844 Q665.3875,553.5469 666.7313,553.5469 Q667.3563,553.5469 667.95,553.2813 Q668.5438,553 669.1688,552.4219 L669.1688,555.1406 Z " fill="#000000"/><text fill="#000000" font-family="sans-serif" font-size="14" lengthAdjust="spacing" textLength="82" x="685.8" y="554.3467">Modification</text><line style="stroke:#181818;stroke-width:0.5;" x1="627" x2="795" y1="565.5" y2="565.5"/><text fill="#000000" font-family="sans-serif" font-size="14" lengthAdjust="spacing" textLength="105" x="632" y="582.4951">-post: Postable</text><text fill="#000000" font-family="sans-serif" font-size="14" lengthAdjust="spacing" textLength="117" x="632" y="598.792">-oldImage: String</text><text fill="#000000" font-family="sans-serif" font-size="14" lengthAdjust="spacing" textLength="105" x="632" y="615.0889">-oldText: String</text><text fill="#000000" font-family="sans-serif" font-size="14" lengthAdjust="spacing" textLength="158" x="632" y="631.3857">-date: ZonedDateTime</text><line style="stroke:#181818;stroke-width:0.5;" x1="627" x2="795" y1="638.6875" y2="638.6875"/></g><!--MD5=[107af66394bf1ebaa045812c9c475148]
class Score--><g id="elem_Score"><rect codeLine="48" fill="#F1F1F1" height="113.1875" id="Score" rx="2.5" ry="2.5" style="stroke:#181818;stroke-width:0.5;" width="126" x="7" y="533.5"/><ellipse cx="46.3" cy="549.5" fill="#ADD1B2" rx="11" ry="11" style="stroke:#181818;stroke-width:1.0;"/><path d="M49.2688,555.1406 Q48.6906,555.4375 48.05,555.5781 Q47.4094,555.7344 46.7063,555.7344 Q44.2063,555.7344 42.8781,554.0938 Q41.5656,552.4375 41.5656,549.3125 Q41.5656,546.1875 42.8781,544.5313 Q44.2063,542.875 46.7063,542.875 Q47.4094,542.875 48.05,543.0313 Q48.7063,543.1875 49.2688,543.4844 L49.2688,546.2031 Q48.6438,545.625 48.05,545.3594 Q47.4563,545.0781 46.8313,545.0781 Q45.4875,545.0781 44.8,546.1563 Q44.1125,547.2188 44.1125,549.3125 Q44.1125,551.4063 44.8,552.4844 Q45.4875,553.5469 46.8313,553.5469 Q47.4563,553.5469 48.05,553.2813 Q48.6438,553 49.2688,552.4219 L49.2688,555.1406 Z " fill="#000000"/><text fill="#000000" font-family="sans-serif" font-size="14" lengthAdjust="spacing" textLength="40" x="65.7" y="554.3467">Score</text><line style="stroke:#181818;stroke-width:0.5;" x1="8" x2="132" y1="565.5" y2="565.5"/><text fill="#000000" font-family="sans-serif" font-size="14" lengthAdjust="spacing" textLength="70" x="13" y="582.4951">-score: int</text><text fill="#000000" font-family="sans-serif" font-size="14" lengthAdjust="spacing" textLength="91" x="13" y="598.792">-author: User</text><text fill="#000000" font-family="sans-serif" font-size="14" lengthAdjust="spacing" textLength="98" x="13" y="615.0889">-profile: Profile</text><text fill="#000000" font-family="sans-serif" font-size="14" lengthAdjust="spacing" textLength="114" x="13" y="631.3857">-category: String</text><line style="stroke:#181818;stroke-width:0.5;" x1="8" x2="132" y1="638.6875" y2="638.6875"/></g><!--MD5=[a4505dd07142bd4d2a7e7568bec46dca]
class ScoreMean--><g id="elem_ScoreMean"><rect codeLine="54" fill="#F1F1F1" height="80.5938" id="ScoreMean" rx="2.5" ry="2.5" style="stroke:#181818;stroke-width:0.5;" width="126" x="168" y="549.5"/><ellipse cx="190.2" cy="565.5" fill="#ADD1B2" rx="11" ry="11" style="stroke:#181818;stroke-width:1.0;"/><path d="M193.1688,571.1406 Q192.5906,571.4375 191.95,571.5781 Q191.3094,571.7344 190.6063,571.7344 Q188.1063,571.7344 186.7781,570.0938 Q185.4656,568.4375 185.4656,565.3125 Q185.4656,562.1875 186.7781,560.5313 Q188.1063,558.875 190.6063,558.875 Q191.3094,558.875 191.95,559.0313 Q192.6063,559.1875 193.1688,559.4844 L193.1688,562.2031 Q192.5438,561.625 191.95,561.3594 Q191.3563,561.0781 190.7313,561.0781 Q189.3875,561.0781 188.7,562.1563 Q188.0125,563.2188 188.0125,565.3125 Q188.0125,567.4063 188.7,568.4844 Q189.3875,569.5469 190.7313,569.5469 Q191.3563,569.5469 191.95,569.2813 Q192.5438,569 193.1688,568.4219 L193.1688,571.1406 Z " fill="#000000"/><text fill="#000000" font-family="sans-serif" font-size="14" lengthAdjust="spacing" textLength="78" x="205.8" y="570.3467">ScoreMean</text><line style="stroke:#181818;stroke-width:0.5;" x1="169" x2="293" y1="581.5" y2="581.5"/><text fill="#000000" font-family="sans-serif" font-size="14" lengthAdjust="spacing" textLength="114" x="174" y="598.4951">-category: String</text><text fill="#000000" font-family="sans-serif" font-size="14" lengthAdjust="spacing" textLength="82" x="174" y="614.792">-mean: float</text><line style="stroke:#181818;stroke-width:0.5;" x1="169" x2="293" y1="622.0938" y2="622.0938"/></g><!--MD5=[993a1ed30139d6bc9fd462e29443e622]
link User to User--><g id="link_User_User"><path codeLine="58" d="M472.26,59.32 C492.64,64.88 507,79.94 507,104.5 C507,129.06 492.64,144.12 472.26,149.68 " fill="none" id="User-User" style="stroke:#181818;stroke-width:1.0;"/><text fill="#000000" font-family="sans-serif" font-size="13" lengthAdjust="spacing" textLength="8" x="479.8697" y="52.8629">n</text><text fill="#000000" font-family="sans-serif" font-size="13" lengthAdjust="spacing" textLength="8" x="479.8697" y="149.294">n</text></g><!--MD5=[b4bd39d71366c10c915fa2ab4cb00da7]
link User to Postable--><g id="link_User_Postable"><path codeLine="59" d="M472.15,184.86 C508.26,211.1 548.71,240.51 585.91,267.56 " fill="none" id="User-to-Postable" style="stroke:#181818;stroke-width:1.0;"/><polygon fill="none" points="596.82,275.49,594.3186,268.7266,587.1135,268.4343,589.6148,275.1977,596.82,275.49" style="stroke:#181818;stroke-width:1.0;"/><text fill="#000000" font-family="sans-serif" font-size="13" lengthAdjust="spacing" textLength="8" x="480.1059" y="187.0661">1</text><text fill="#000000" font-family="sans-serif" font-size="13" lengthAdjust="spacing" textLength="8" x="580.8798" y="266.4241">n</text></g><!--MD5=[a654de48d4bf1588b9fb1dcf6440abd6]
link User to Score--><g id="link_User_Score"><path codeLine="60" d="M253.72,153.4 C207.6,179.08 157.6,215.19 127,262 C76.05,339.94 66.71,449.77 66.75,520.18 " fill="none" id="User-to-Score" style="stroke:#181818;stroke-width:1.0;"/><polygon fill="none" points="66.87,533.28,70.8171,527.2451,66.7645,521.2805,62.8174,527.3154,66.87,533.28" style="stroke:#181818;stroke-width:1.0;"/><text fill="#000000" font-family="sans-serif" font-size="13" lengthAdjust="spacing" textLength="8" x="238.109" y="153.2639">1</text><text fill="#000000" font-family="sans-serif" font-size="13" lengthAdjust="spacing" textLength="8" x="58.001" y="522.5167">n</text></g><!--MD5=[77c575690b0287b9077f2f97ff7c450d]
link User to Post--><g id="link_User_Post"><path codeLine="61" d="M382.4,202.18 C401.03,295.05 428.75,433.25 445.53,516.87 " fill="none" id="User-Post" style="stroke:#181818;stroke-width:1.0;"/><text fill="#000000" font-family="sans-serif" font-size="13" lengthAdjust="spacing" textLength="8" x="375.4828" y="221.6586">n</text><text fill="#000000" font-family="sans-serif" font-size="13" lengthAdjust="spacing" textLength="8" x="435.7119" y="506.0172">n</text></g><!--MD5=[970cac591fccbf7a9f15ccd0a38b4219]
link User to Page--><g id="link_User_Page"><path codeLine="62" d="M319.41,202.23 C307.42,228.84 294.59,257.32 283.21,282.58 " fill="none" id="User-to-Page" style="stroke:#181818;stroke-width:1.0;"/><polygon fill="none" points="277.75,294.7,283.858,290.8669,282.6689,283.7545,276.5609,287.5876,277.75,294.7" style="stroke:#181818;stroke-width:1.0;"/><text fill="#000000" font-family="sans-serif" font-size="13" lengthAdjust="spacing" textLength="8" x="308.0638" y="221.7121">1</text><text fill="#000000" font-family="sans-serif" font-size="13" lengthAdjust="spacing" textLength="8" x="272.457" y="283.8399">1</text></g><!--MD5=[b5bc07f83d3543bfbfb84465de5f2af5]
reverse link Page to Post--><g id="link_Page_Post"><path codeLine="63" d="M316.66,433.78 C341.21,460.36 368.9,490.35 393.36,516.83 " fill="none" id="Page-backto-Post" style="stroke:#181818;stroke-width:1.0;"/><polygon fill="#181818" points="307.78,424.15,308.9131,431.2715,315.9226,432.9646,314.7895,425.8431,307.78,424.15" style="stroke:#181818;stroke-width:1.0;"/><text fill="#000000" font-family="sans-serif" font-size="13" lengthAdjust="spacing" textLength="8" x="306.1139" y="444.5389">1</text><text fill="#000000" font-family="sans-serif" font-size="13" lengthAdjust="spacing" textLength="8" x="378.4064" y="505.9732">n</text></g><!--MD5=[6e23cef8a53b405d1237a49739fbcb28]
reverse link Page to Score--><g id="link_Page_Score"><path codeLine="64" d="M191.1,434.41 C165.89,466.6 136.84,503.68 113.51,533.46 " fill="none" id="Page-backto-Score" style="stroke:#181818;stroke-width:1.0;"/><polygon fill="#181818" points="199.14,424.15,192.2909,426.4059,191.739,433.5959,198.5881,431.34,199.14,424.15" style="stroke:#181818;stroke-width:1.0;"/><text fill="#000000" font-family="sans-serif" font-size="13" lengthAdjust="spacing" textLength="8" x="184.9124" y="444.5389">1</text><text fill="#000000" font-family="sans-serif" font-size="13" lengthAdjust="spacing" textLength="8" x="110.5722" y="522.3183">n</text></g><!--MD5=[28a335f1fcaf05bf0a28c34f8e1928d4]
reverse link Page to ScoreMean--><g id="link_Page_ScoreMean"><path codeLine="65" d="M242.96,437.17 C240,474.79 236.55,518.52 234.12,549.36 " fill="none" id="Page-backto-ScoreMean" style="stroke:#181818;stroke-width:1.0;"/><polygon fill="none" points="243.99,424.15,239.5277,429.8146,243.0404,436.1124,247.5027,430.4477,243.99,424.15" style="stroke:#181818;stroke-width:1.0;"/><text fill="#000000" font-family="sans-serif" font-size="13" lengthAdjust="spacing" textLength="8" x="234.9482" y="444.5389">1</text><text fill="#000000" font-family="sans-serif" font-size="13" lengthAdjust="spacing" textLength="8" x="225.9743" y="538.4983">5</text></g><!--MD5=[ddcec94a1d8424ec2bc8d826c26bcca6]
reverse link Postable to Modification--><g id="link_Postable_Modification"><path codeLine="66" d="M711,470.29 C711,492.2 711,514.32 711,533.44 " fill="none" id="Postable-backto-Modification" style="stroke:#181818;stroke-width:1.0;"/><polygon fill="#181818" points="711,457.07,707,463.07,711,469.07,715,463.07,711,457.07" style="stroke:#181818;stroke-width:1.0;"/><text fill="#000000" font-family="sans-serif" font-size="13" lengthAdjust="spacing" textLength="8" x="702.7063" y="476.8699">1</text><text fill="#000000" font-family="sans-serif" font-size="13" lengthAdjust="spacing" textLength="8" x="702.4875" y="522.2957">n</text></g><!--MD5=[e63508cd4518266fde4fa6d9a8e929ca]
reverse link Postable to Comment--><g id="link_Postable_Comment"><path codeLine="67" d="M788.48,467.3 C816.2,500.38 846.06,534.29 868.64,557.88 " fill="none" id="Postable-backto-Comment" style="stroke:#181818;stroke-width:1.0;"/><polygon fill="#181818" points="779.96,457.07,780.7252,464.2404,787.6383,466.2919,786.8731,459.1215,779.96,457.07" style="stroke:#181818;stroke-width:1.0;"/><text fill="#000000" font-family="sans-serif" font-size="13" lengthAdjust="spacing" textLength="8" x="776.7305" y="476.8699">1</text><text fill="#000000" font-family="sans-serif" font-size="13" lengthAdjust="spacing" textLength="8" x="852.522" y="546.7584">n</text></g><!--MD5=[e63508cd4518266fde4fa6d9a8e929ca]
reverse link Postable to Comment--><g id="link_Postable_Comment"><path codeLine="69" d="M819.04,472.44 C845.65,503.86 871.09,535.51 887.33,557.88 " fill="none" id="Postable-backto-Comment-1" style="stroke:#181818;stroke-width:1.0;"/><polygon fill="none" points="813.59,476.83,805.92,457.07,824.24,467.74,813.59,476.83" style="stroke:#181818;stroke-width:1.0;"/></g><!--MD5=[8012d814a21e1c16d782720e3ba6f27e]
reverse link Postable to Post--><g id="link_Postable_Post"><path codeLine="68" d="M589.91,470.73 C572.76,486.34 555.51,502.05 539.43,516.69 " fill="none" id="Postable-backto-Post" style="stroke:#181818;stroke-width:1.0;"/><polygon fill="none" points="585.42,465.36,604.92,457.07,594.84,475.71,585.42,465.36" style="stroke:#181818;stroke-width:1.0;"/></g><!--MD5=[849950da5954a70bc91d34c0231d025d]
@startuml classes
    skinparam classAttributeIconSize 0
    class User {
        -username: String
        -password: String
        -following: List<User>
        -followers: int = 0
        -joined: ZonedDateTime
        -isActive: boolean
        -isAdmin: boolean
        +boolean follow(User user)
        +boolean unfollow(User user)
    }
    class Page {
        -user: User
        -name: String
        -image: String
        -description: String
        -scoreMeans: ScoreMean[5] 
    }
    abstract class Postable {
        -author: User
        -text: String
        -creationDate: ZonedDateTime
        -likes: int
        -dislikes: int
        -isActive: boolean
        -isEdited: boolean
        +void like()
        +void dislike()
    }
    class Post {
        -page: Profile
        -image: String
        -visibility: List~User~
        -title: String
        +boolean turnVisibleTo(User user)
        +boolean turnInvisibleTo(User user)
    }
    class Comment {
        -postable: Postable
    }
    class Modification {
        -post: Postable
        -oldImage: String
        -oldText: String
        -date: ZonedDateTime
    }
    class Score {
        -score: int
        -author: User
        -profile: Profile
        -category: String
    }
    class ScoreMean {
        -category: String
        -mean: float
    }
    User "n" - - "n" User
    User "1" - -o "n" Postable
    User "1" - -o "n" Score
    User "n" - - "n" Post
    User "1" - -o "1" Page
    Page "1" *- - "n" Post
    Page "1" *- - "n" Score
    Page "1" o- - "5" ScoreMean
    Postable "1" *- - "n" Modification
    Postable "1" *- - "n" Comment
    Postable <|- - Post
    Postable <|- - Comment
@enduml

PlantUML version 1.2022.7(Mon Aug 22 14:01:30 BRT 2022)
(GPL source distribution)
Java Runtime: Java(TM) SE Runtime Environment
JVM: Java HotSpot(TM) 64-Bit Server VM
Default Encoding: UTF-8
Language: en
Country: US
--></g></svg>