<?xml version="1.0" encoding="UTF-8" standalone="no"?><svg xmlns="http://www.w3.org/2000/svg" xmlns:xlink="http://www.w3.org/1999/xlink" contentStyleType="text/css" height="669px" preserveAspectRatio="none" style="width:960px;height:669px;background:#FFFFFF;" version="1.1" viewBox="0 0 960 669" width="960px" zoomAndPan="magnify"><defs/><g><!--MD5=[3fd616f346a44cd59a91eb10b19e157c]
class User--><g id="elem_User"><rect codeLine="2" fill="#F1F1F1" height="194.6719" id="User" rx="2.5" ry="2.5" style="stroke:#181818;stroke-width:0.5;" width="218" x="254" y="7"/><ellipse cx="342.75" cy="23" fill="#ADD1B2" rx="11" ry="11" style="stroke:#181818;stroke-width:1.0;"/><path d="M345.7188,28.6406 Q345.1406,28.9375 344.5,29.0781 Q343.8594,29.2344 343.1563,29.2344 Q340.6563,29.2344 339.3281,27.5938 Q338.0156,25.9375 338.0156,22.8125 Q338.0156,19.6875 339.3281,18.0313 Q340.6563,16.375 343.1563,16.375 Q343.8594,16.375 344.5,16.5313 Q345.1563,16.6875 345.7188,16.9844 L345.7188,19.7031 Q345.0938,19.125 344.5,18.8594 Q343.9063,18.5781 343.2813,18.5781 Q341.9375,18.5781 341.25,19.6563 Q340.5625,20.7188 340.5625,22.8125 Q340.5625,24.9063 341.25,25.9844 Q341.9375,27.0469 343.2813,27.0469 Q343.9063,27.0469 344.5,26.7813 Q345.0938,26.5 345.7188,25.9219 L345.7188,28.6406 Z " fill="#000000"/><text fill="#000000" font-family="sans-serif" font-size="14" lengthAdjust="spacing" textLength="32" x="363.25" y="27.8467">User</text><line style="stroke:#181818;stroke-width:0.5;" x1="255" x2="471" y1="39" y2="39"/><text fill="#000000" font-family="sans-serif" font-size="14" lengthAdjust="spacing" textLength="124" x="260" y="55.9951">-username: String</text><text fill="#000000" font-family="sans-serif" font-size="14" lengthAdjust="spacing" textLength="121" x="260" y="72.292">-password: String</text><text fill="#000000" font-family="sans-serif" font-size="14" lengthAdjust="spacing" textLength="153" x="260" y="88.5889">-following: List&lt;User&gt;</text><text fill="#000000" font-family="sans-serif" font-size="14" lengthAdjust="spacing" textLength="121" x="260" y="104.8857">-followers: int = 0</text><text fill="#000000" font-family="sans-serif" font-size="14" lengthAdjust="spacing" textLength="118" x="260" y="121.1826">-joinDate: Instant</text><text fill="#000000" font-family="sans-serif" font-size="14" lengthAdjust="spacing" textLength="122" x="260" y="137.4795">-isActive: boolean</text><text fill="#000000" font-family="sans-serif" font-size="14" lengthAdjust="spacing" textLength="124" x="260" y="153.7764">-isAdmin: boolean</text><line style="stroke:#181818;stroke-width:0.5;" x1="255" x2="471" y1="161.0781" y2="161.0781"/><text fill="#000000" font-family="sans-serif" font-size="14" lengthAdjust="spacing" textLength="188" x="260" y="178.0732">+boolean follow(User user)</text><text fill="#000000" font-family="sans-serif" font-size="14" lengthAdjust="spacing" textLength="206" x="260" y="194.3701">+boolean unfollow(User user)</text></g><!--MD5=[6a494c20d032ff54e1efa92c1369bc7b]
class Page--><g id="elem_Page"><rect codeLine="13" fill="#F1F1F1" height="145.7813" id="Page" rx="2.5" ry="2.5" style="stroke:#181818;stroke-width:0.5;" width="208" x="145" y="286.5"/><ellipse cx="227.25" cy="302.5" fill="#ADD1B2" rx="11" ry="11" style="stroke:#181818;stroke-width:1.0;"/><path d="M230.2188,308.1406 Q229.6406,308.4375 229,308.5781 Q228.3594,308.7344 227.6563,308.7344 Q225.1563,308.7344 223.8281,307.0938 Q222.5156,305.4375 222.5156,302.3125 Q222.5156,299.1875 223.8281,297.5313 Q225.1563,295.875 227.6563,295.875 Q228.3594,295.875 229,296.0313 Q229.6563,296.1875 230.2188,296.4844 L230.2188,299.2031 Q229.5938,298.625 229,298.3594 Q228.4063,298.0781 227.7813,298.0781 Q226.4375,298.0781 225.75,299.1563 Q225.0625,300.2188 225.0625,302.3125 Q225.0625,304.4063 225.75,305.4844 Q226.4375,306.5469 227.7813,306.5469 Q228.4063,306.5469 229,306.2813 Q229.5938,306 230.2188,305.4219 L230.2188,308.1406 Z " fill="#000000"/><text fill="#000000" font-family="sans-serif" font-size="14" lengthAdjust="spacing" textLength="35" x="247.75" y="307.3467">Page</text><line style="stroke:#181818;stroke-width:0.5;" x1="146" x2="352" y1="318.5" y2="318.5"/><text fill="#000000" font-family="sans-serif" font-size="14" lengthAdjust="spacing" textLength="77" x="151" y="335.4951">-user: User</text><text fill="#000000" font-family="sans-serif" font-size="14" lengthAdjust="spacing" textLength="93" x="151" y="351.792">-name: String</text><text fill="#000000" font-family="sans-serif" font-size="14" lengthAdjust="spacing" textLength="96" x="151" y="368.0889">-image: String</text><text fill="#000000" font-family="sans-serif" font-size="14" lengthAdjust="spacing" textLength="131" x="151" y="384.3857">-description: String</text><text fill="#000000" font-family="sans-serif" font-size="14" lengthAdjust="spacing" textLength="196" x="151" y="400.6826">-scoreMeans: ScoreMean[5]</text><text fill="#000000" font-family="sans-serif" font-size="14" lengthAdjust="spacing" textLength="122" x="151" y="416.9795">-isActive: boolean</text><line style="stroke:#181818;stroke-width:0.5;" x1="146" x2="352" y1="424.2813" y2="424.2813"/></g><!--MD5=[2e079e392ada54723ff95dae1718877d]
class Postable--><g id="elem_Postable"><rect codeLine="21" fill="#F1F1F1" height="194.6719" id="Postable" rx="2.5" ry="2.5" style="stroke:#181818;stroke-width:0.5;" width="162" x="618" y="262"/><ellipse cx="666.25" cy="278" fill="#A9DCDF" rx="11" ry="11" style="stroke:#181818;stroke-width:1.0;"/><path d="M666.3594,273.3438 L665.2031,278.4219 L667.5313,278.4219 L666.3594,273.3438 Z M664.875,271.1094 L667.8594,271.1094 L671.2188,283.5 L668.7656,283.5 L668,280.4375 L664.7188,280.4375 L663.9688,283.5 L661.5313,283.5 L664.875,271.1094 Z " fill="#000000"/><text fill="#000000" font-family="sans-serif" font-size="14" font-style="italic" lengthAdjust="spacing" textLength="57" x="686.75" y="283.432">Postable</text><line style="stroke:#181818;stroke-width:0.5;" x1="619" x2="779" y1="294" y2="294"/><text fill="#000000" font-family="sans-serif" font-size="14" lengthAdjust="spacing" textLength="91" x="624" y="310.9951">-author: User</text><text fill="#000000" font-family="sans-serif" font-size="14" lengthAdjust="spacing" textLength="80" x="624" y="327.292">-text: String</text><text fill="#000000" font-family="sans-serif" font-size="14" lengthAdjust="spacing" textLength="150" x="624" y="343.5889">-creationDate: Instant</text><text fill="#000000" font-family="sans-serif" font-size="14" lengthAdjust="spacing" textLength="62" x="624" y="359.8857">-likes: int</text><text fill="#000000" font-family="sans-serif" font-size="14" lengthAdjust="spacing" textLength="82" x="624" y="376.1826">-dislikes: int</text><text fill="#000000" font-family="sans-serif" font-size="14" lengthAdjust="spacing" textLength="122" x="624" y="392.4795">-isActive: boolean</text><text fill="#000000" font-family="sans-serif" font-size="14" lengthAdjust="spacing" textLength="125" x="624" y="408.7764">-isEdited: boolean</text><line style="stroke:#181818;stroke-width:0.5;" x1="619" x2="779" y1="416.0781" y2="416.0781"/><text fill="#000000" font-family="sans-serif" font-size="14" lengthAdjust="spacing" textLength="77" x="624" y="433.0732">+void like()</text><text fill="#000000" font-family="sans-serif" font-size="14" lengthAdjust="spacing" textLength="97" x="624" y="449.3701">+void dislike()</text></g><!--MD5=[9bb0bdd047fba1a3c8d48282c35b4537]
class Post--><g id="elem_Post"><rect codeLine="32" fill="#F1F1F1" height="145.7813" id="Post" rx="2.5" ry="2.5" style="stroke:#181818;stroke-width:0.5;" width="261" x="329.5" y="517"/><ellipse cx="440.25" cy="533" fill="#ADD1B2" rx="11" ry="11" style="stroke:#181818;stroke-width:1.0;"/><path d="M443.2188,538.6406 Q442.6406,538.9375 442,539.0781 Q441.3594,539.2344 440.6563,539.2344 Q438.1563,539.2344 436.8281,537.5938 Q435.5156,535.9375 435.5156,532.8125 Q435.5156,529.6875 436.8281,528.0313 Q438.1563,526.375 440.6563,526.375 Q441.3594,526.375 442,526.5313 Q442.6563,526.6875 443.2188,526.9844 L443.2188,529.7031 Q442.5938,529.125 442,528.8594 Q441.4063,528.5781 440.7813,528.5781 Q439.4375,528.5781 438.75,529.6563 Q438.0625,530.7188 438.0625,532.8125 Q438.0625,534.9063 438.75,535.9844 Q439.4375,537.0469 440.7813,537.0469 Q441.4063,537.0469 442,536.7813 Q442.5938,536.5 443.2188,535.9219 L443.2188,538.6406 Z " fill="#000000"/><text fill="#000000" font-family="sans-serif" font-size="14" lengthAdjust="spacing" textLength="31" x="460.75" y="537.8467">Post</text><line style="stroke:#181818;stroke-width:0.5;" x1="330.5" x2="589.5" y1="549" y2="549"/><text fill="#000000" font-family="sans-serif" font-size="14" lengthAdjust="spacing" textLength="91" x="335.5" y="565.9951">-page: Profile</text><text fill="#000000" font-family="sans-serif" font-size="14" lengthAdjust="spacing" textLength="96" x="335.5" y="582.292">-image: String</text><text fill="#000000" font-family="sans-serif" font-size="14" lengthAdjust="spacing" textLength="144" x="335.5" y="598.5889">-visibility: List~User~</text><text fill="#000000" font-family="sans-serif" font-size="14" lengthAdjust="spacing" textLength="79" x="335.5" y="614.8857">-title: String</text><line style="stroke:#181818;stroke-width:0.5;" x1="330.5" x2="589.5" y1="622.1875" y2="622.1875"/><text fill="#000000" font-family="sans-serif" font-size="14" lengthAdjust="spacing" textLength="239" x="335.5" y="639.1826">+boolean turnVisibleTo(User user)</text><text fill="#000000" font-family="sans-serif" font-size="14" lengthAdjust="spacing" textLength="249" x="335.5" y="655.4795">+boolean turnInvisibleTo(User user)</text></g><!--MD5=[042fa140da40c49659127f611bcff931]
class Comment--><g id="elem_Comment"><rect codeLine="40" fill="#F1F1F1" height="64.2969" id="Comment" rx="2.5" ry="2.5" style="stroke:#181818;stroke-width:0.5;" width="146" x="807" y="558"/><ellipse cx="842.7" cy="574" fill="#ADD1B2" rx="11" ry="11" style="stroke:#181818;stroke-width:1.0;"/><path d="M845.6688,579.6406 Q845.0906,579.9375 844.45,580.0781 Q843.8094,580.2344 843.1063,580.2344 Q840.6063,580.2344 839.2781,578.5938 Q837.9656,576.9375 837.9656,573.8125 Q837.9656,570.6875 839.2781,569.0313 Q840.6063,567.375 843.1063,567.375 Q843.8094,567.375 844.45,567.5313 Q845.1063,567.6875 845.6688,567.9844 L845.6688,570.7031 Q845.0438,570.125 844.45,569.8594 Q843.8563,569.5781 843.2313,569.5781 Q841.8875,569.5781 841.2,570.6563 Q840.5125,571.7188 840.5125,573.8125 Q840.5125,575.9063 841.2,576.9844 Q841.8875,578.0469 843.2313,578.0469 Q843.8563,578.0469 844.45,577.7813 Q845.0438,577.5 845.6688,576.9219 L845.6688,579.6406 Z " fill="#000000"/><text fill="#000000" font-family="sans-serif" font-size="14" lengthAdjust="spacing" textLength="68" x="861.3" y="578.8467">Comment</text><line style="stroke:#181818;stroke-width:0.5;" x1="808" x2="952" y1="590" y2="590"/><text fill="#000000" font-family="sans-serif" font-size="14" lengthAdjust="spacing" textLength="134" x="813" y="606.9951">-postable: Postable</text><line style="stroke:#181818;stroke-width:0.5;" x1="808" x2="952" y1="614.2969" y2="614.2969"/></g><!--MD5=[392569bdf4cc06d7d4c14230b81d2d7d]
class Modification--><g id="elem_Modification"><rect codeLine="43" fill="#F1F1F1" height="113.1875" id="Modification" rx="2.5" ry="2.5" style="stroke:#181818;stroke-width:0.5;" width="146" x="626" y="533.5"/><ellipse cx="655.4" cy="549.5" fill="#ADD1B2" rx="11" ry="11" style="stroke:#181818;stroke-width:1.0;"/><path d="M658.3688,555.1406 Q657.7906,555.4375 657.15,555.5781 Q656.5094,555.7344 655.8063,555.7344 Q653.3063,555.7344 651.9781,554.0938 Q650.6656,552.4375 650.6656,549.3125 Q650.6656,546.1875 651.9781,544.5313 Q653.3063,542.875 655.8063,542.875 Q656.5094,542.875 657.15,543.0313 Q657.8063,543.1875 658.3688,543.4844 L658.3688,546.2031 Q657.7438,545.625 657.15,545.3594 Q656.5563,545.0781 655.9313,545.0781 Q654.5875,545.0781 653.9,546.1563 Q653.2125,547.2188 653.2125,549.3125 Q653.2125,551.4063 653.9,552.4844 Q654.5875,553.5469 655.9313,553.5469 Q656.5563,553.5469 657.15,553.2813 Q657.7438,553 658.3688,552.4219 L658.3688,555.1406 Z " fill="#000000"/><text fill="#000000" font-family="sans-serif" font-size="14" lengthAdjust="spacing" textLength="82" x="672.6" y="554.3467">Modification</text><line style="stroke:#181818;stroke-width:0.5;" x1="627" x2="771" y1="565.5" y2="565.5"/><text fill="#000000" font-family="sans-serif" font-size="14" lengthAdjust="spacing" textLength="134" x="632" y="582.4951">-postable: Postable</text><text fill="#000000" font-family="sans-serif" font-size="14" lengthAdjust="spacing" textLength="117" x="632" y="598.792">-oldImage: String</text><text fill="#000000" font-family="sans-serif" font-size="14" lengthAdjust="spacing" textLength="105" x="632" y="615.0889">-oldText: String</text><text fill="#000000" font-family="sans-serif" font-size="14" lengthAdjust="spacing" textLength="92" x="632" y="631.3857">-date: Instant</text><line style="stroke:#181818;stroke-width:0.5;" x1="627" x2="771" y1="638.6875" y2="638.6875"/></g><!--MD5=[107af66394bf1ebaa045812c9c475148]
class Score--><g id="elem_Score"><rect codeLine="49" fill="#F1F1F1" height="113.1875" id="Score" rx="2.5" ry="2.5" style="stroke:#181818;stroke-width:0.5;" width="126" x="7" y="533.5"/><ellipse cx="46.3" cy="549.5" fill="#ADD1B2" rx="11" ry="11" style="stroke:#181818;stroke-width:1.0;"/><path d="M49.2688,555.1406 Q48.6906,555.4375 48.05,555.5781 Q47.4094,555.7344 46.7063,555.7344 Q44.2063,555.7344 42.8781,554.0938 Q41.5656,552.4375 41.5656,549.3125 Q41.5656,546.1875 42.8781,544.5313 Q44.2063,542.875 46.7063,542.875 Q47.4094,542.875 48.05,543.0313 Q48.7063,543.1875 49.2688,543.4844 L49.2688,546.2031 Q48.6438,545.625 48.05,545.3594 Q47.4563,545.0781 46.8313,545.0781 Q45.4875,545.0781 44.8,546.1563 Q44.1125,547.2188 44.1125,549.3125 Q44.1125,551.4063 44.8,552.4844 Q45.4875,553.5469 46.8313,553.5469 Q47.4563,553.5469 48.05,553.2813 Q48.6438,553 49.2688,552.4219 L49.2688,555.1406 Z " fill="#000000"/><text fill="#000000" font-family="sans-serif" font-size="14" lengthAdjust="spacing" textLength="40" x="65.7" y="554.3467">Score</text><line style="stroke:#181818;stroke-width:0.5;" x1="8" x2="132" y1="565.5" y2="565.5"/><text fill="#000000" font-family="sans-serif" font-size="14" lengthAdjust="spacing" textLength="70" x="13" y="582.4951">-score: int</text><text fill="#000000" font-family="sans-serif" font-size="14" lengthAdjust="spacing" textLength="91" x="13" y="598.792">-author: User</text><text fill="#000000" font-family="sans-serif" font-size="14" lengthAdjust="spacing" textLength="98" x="13" y="615.0889">-profile: Profile</text><text fill="#000000" font-family="sans-serif" font-size="14" lengthAdjust="spacing" textLength="114" x="13" y="631.3857">-category: String</text><line style="stroke:#181818;stroke-width:0.5;" x1="8" x2="132" y1="638.6875" y2="638.6875"/></g><!--MD5=[a4505dd07142bd4d2a7e7568bec46dca]
class ScoreMean--><g id="elem_ScoreMean"><rect codeLine="55" fill="#F1F1F1" height="80.5938" id="ScoreMean" rx="2.5" ry="2.5" style="stroke:#181818;stroke-width:0.5;" width="126" x="168" y="549.5"/><ellipse cx="190.2" cy="565.5" fill="#ADD1B2" rx="11" ry="11" style="stroke:#181818;stroke-width:1.0;"/><path d="M193.1688,571.1406 Q192.5906,571.4375 191.95,571.5781 Q191.3094,571.7344 190.6063,571.7344 Q188.1063,571.7344 186.7781,570.0938 Q185.4656,568.4375 185.4656,565.3125 Q185.4656,562.1875 186.7781,560.5313 Q188.1063,558.875 190.6063,558.875 Q191.3094,558.875 191.95,559.0313 Q192.6063,559.1875 193.1688,559.4844 L193.1688,562.2031 Q192.5438,561.625 191.95,561.3594 Q191.3563,561.0781 190.7313,561.0781 Q189.3875,561.0781 188.7,562.1563 Q188.0125,563.2188 188.0125,565.3125 Q188.0125,567.4063 188.7,568.4844 Q189.3875,569.5469 190.7313,569.5469 Q191.3563,569.5469 191.95,569.2813 Q192.5438,569 193.1688,568.4219 L193.1688,571.1406 Z " fill="#000000"/><text fill="#000000" font-family="sans-serif" font-size="14" lengthAdjust="spacing" textLength="78" x="205.8" y="570.3467">ScoreMean</text><line style="stroke:#181818;stroke-width:0.5;" x1="169" x2="293" y1="581.5" y2="581.5"/><text fill="#000000" font-family="sans-serif" font-size="14" lengthAdjust="spacing" textLength="114" x="174" y="598.4951">-category: String</text><text fill="#000000" font-family="sans-serif" font-size="14" lengthAdjust="spacing" textLength="82" x="174" y="614.792">-mean: float</text><line style="stroke:#181818;stroke-width:0.5;" x1="169" x2="293" y1="622.0938" y2="622.0938"/></g><!--MD5=[993a1ed30139d6bc9fd462e29443e622]
link User to User--><g id="link_User_User"><path codeLine="59" d="M472.26,59.32 C492.64,64.88 507,79.94 507,104.5 C507,129.06 492.64,144.12 472.26,149.68 " fill="none" id="User-User" style="stroke:#181818;stroke-width:1.0;"/><text fill="#000000" font-family="sans-serif" font-size="13" lengthAdjust="spacing" textLength="8" x="479.8697" y="52.8629">n</text><text fill="#000000" font-family="sans-serif" font-size="13" lengthAdjust="spacing" textLength="8" x="479.8697" y="149.294">n</text></g><!--MD5=[b4bd39d71366c10c915fa2ab4cb00da7]
link User to Postable--><g id="link_User_Postable"><path codeLine="60" d="M472.09,187.64 C515.81,220.56 565.63,258.07 607.42,289.54 " fill="none" id="User-to-Postable" style="stroke:#181818;stroke-width:1.0;"/><polygon fill="none" points="617.87,297.41,615.4805,290.6063,608.2811,290.1952,610.6706,296.9989,617.87,297.41" style="stroke:#181818;stroke-width:1.0;"/><text fill="#000000" font-family="sans-serif" font-size="13" lengthAdjust="spacing" textLength="8" x="480.0416" y="190.0415">1</text><text fill="#000000" font-family="sans-serif" font-size="13" lengthAdjust="spacing" textLength="8" x="602.0221" y="288.0828">n</text></g><!--MD5=[a654de48d4bf1588b9fb1dcf6440abd6]
link User to Score--><g id="link_User_Score"><path codeLine="61" d="M253.72,153.4 C207.6,179.08 157.6,215.19 127,262 C76.05,339.94 66.71,449.77 66.75,520.18 " fill="none" id="User-to-Score" style="stroke:#181818;stroke-width:1.0;"/><polygon fill="none" points="66.87,533.28,70.8171,527.2451,66.7645,521.2805,62.8174,527.3154,66.87,533.28" style="stroke:#181818;stroke-width:1.0;"/><text fill="#000000" font-family="sans-serif" font-size="13" lengthAdjust="spacing" textLength="8" x="238.109" y="153.2639">1</text><text fill="#000000" font-family="sans-serif" font-size="13" lengthAdjust="spacing" textLength="8" x="58.001" y="522.5167">n</text></g><!--MD5=[77c575690b0287b9077f2f97ff7c450d]
link User to Post--><g id="link_User_Post"><path codeLine="62" d="M382.4,202.18 C401.03,295.05 428.75,433.25 445.53,516.87 " fill="none" id="User-Post" style="stroke:#181818;stroke-width:1.0;"/><text fill="#000000" font-family="sans-serif" font-size="13" lengthAdjust="spacing" textLength="8" x="375.4828" y="221.6586">n</text><text fill="#000000" font-family="sans-serif" font-size="13" lengthAdjust="spacing" textLength="8" x="435.7119" y="506.0172">n</text></g><!--MD5=[970cac591fccbf7a9f15ccd0a38b4219]
link User to Page--><g id="link_User_Page"><path codeLine="63" d="M319.41,202.23 C308.71,225.99 297.33,251.23 286.92,274.34 " fill="none" id="User-to-Page" style="stroke:#181818;stroke-width:1.0;"/><polygon fill="none" points="281.57,286.22,287.678,282.3869,286.4889,275.2745,280.3809,279.1076,281.57,286.22" style="stroke:#181818;stroke-width:1.0;"/><text fill="#000000" font-family="sans-serif" font-size="13" lengthAdjust="spacing" textLength="8" x="308.0638" y="221.7121">1</text><text fill="#000000" font-family="sans-serif" font-size="13" lengthAdjust="spacing" textLength="8" x="276.3824" y="275.3524">1</text></g><!--MD5=[b5bc07f83d3543bfbfb84465de5f2af5]
reverse link Page to Post--><g id="link_Page_Post"><path codeLine="64" d="M324.59,442.36 C347.04,466.67 371.47,493.12 393.31,516.78 " fill="none" id="Page-backto-Post" style="stroke:#181818;stroke-width:1.0;"/><polygon fill="#181818" points="315.76,432.8,316.8984,439.9207,323.9092,441.6085,322.7708,434.4879,315.76,432.8" style="stroke:#181818;stroke-width:1.0;"/><text fill="#000000" font-family="sans-serif" font-size="13" lengthAdjust="spacing" textLength="8" x="313.5457" y="452.3318">1</text><text fill="#000000" font-family="sans-serif" font-size="13" lengthAdjust="spacing" textLength="8" x="378.3515" y="505.9183">n</text></g><!--MD5=[6e23cef8a53b405d1237a49739fbcb28]
reverse link Page to Score--><g id="link_Page_Score"><path codeLine="65" d="M184.17,443.26 C160.67,473.25 134.72,506.38 113.5,533.47 " fill="none" id="Page-backto-Score" style="stroke:#181818;stroke-width:1.0;"/><polygon fill="#181818" points="192.36,432.8,185.5124,435.0606,184.9654,442.2509,191.813,439.9903,192.36,432.8" style="stroke:#181818;stroke-width:1.0;"/><text fill="#000000" font-family="sans-serif" font-size="13" lengthAdjust="spacing" textLength="8" x="178.7698" y="452.3318">1</text><text fill="#000000" font-family="sans-serif" font-size="13" lengthAdjust="spacing" textLength="8" x="110.5609" y="522.3295">n</text></g><!--MD5=[28a335f1fcaf05bf0a28c34f8e1928d4]
reverse link Page to ScoreMean--><g id="link_Page_ScoreMean"><path codeLine="66" d="M242.25,446.16 C239.46,481.61 236.36,520.98 234.12,549.39 " fill="none" id="Page-backto-ScoreMean" style="stroke:#181818;stroke-width:1.0;"/><polygon fill="none" points="243.3,432.8,238.8377,438.4646,242.3504,444.7624,246.8127,439.0977,243.3,432.8" style="stroke:#181818;stroke-width:1.0;"/><text fill="#000000" font-family="sans-serif" font-size="13" lengthAdjust="spacing" textLength="8" x="234.4058" y="452.3318">1</text><text fill="#000000" font-family="sans-serif" font-size="13" lengthAdjust="spacing" textLength="8" x="225.9743" y="538.5333">5</text></g><!--MD5=[ddcec94a1d8424ec2bc8d826c26bcca6]
reverse link Postable to Modification--><g id="link_Postable_Modification"><path codeLine="67" d="M699,470.29 C699,492.2 699,514.32 699,533.44 " fill="none" id="Postable-backto-Modification" style="stroke:#181818;stroke-width:1.0;"/><polygon fill="#181818" points="699,457.07,695,463.07,699,469.07,703,463.07,699,457.07" style="stroke:#181818;stroke-width:1.0;"/><text fill="#000000" font-family="sans-serif" font-size="13" lengthAdjust="spacing" textLength="8" x="690.7063" y="476.8699">1</text><text fill="#000000" font-family="sans-serif" font-size="13" lengthAdjust="spacing" textLength="8" x="690.4875" y="522.2957">n</text></g><!--MD5=[e63508cd4518266fde4fa6d9a8e929ca]
reverse link Postable to Comment--><g id="link_Postable_Comment"><path codeLine="68" d="M771.21,467.73 C797.1,500.67 825.03,534.39 846.27,557.88 " fill="none" id="Postable-backto-Comment" style="stroke:#181818;stroke-width:1.0;"/><polygon fill="#181818" points="762.88,457.07,763.4208,464.2608,770.2664,466.5273,769.7257,459.3365,762.88,457.07" style="stroke:#181818;stroke-width:1.0;"/><text fill="#000000" font-family="sans-serif" font-size="13" lengthAdjust="spacing" textLength="8" x="759.2774" y="476.8699">1</text><text fill="#000000" font-family="sans-serif" font-size="13" lengthAdjust="spacing" textLength="8" x="830.4882" y="546.7584">n</text></g><!--MD5=[e63508cd4518266fde4fa6d9a8e929ca]
reverse link Postable to Comment--><g id="link_Postable_Comment"><path codeLine="70" d="M792.85,462.03 C820.77,496.76 848.26,533.07 864.99,557.92 " fill="none" id="Postable-backto-Comment-1" style="stroke:#181818;stroke-width:1.0;"/><polygon fill="none" points="787.2,466.18,780.03,446.24,798.07,457.35,787.2,466.18" style="stroke:#181818;stroke-width:1.0;"/></g><!--MD5=[8012d814a21e1c16d782720e3ba6f27e]
reverse link Postable to Post--><g id="link_Postable_Post"><path codeLine="69" d="M603.14,452.15 C580.6,473.7 556.89,496.37 535.39,516.92 " fill="none" id="Postable-backto-Post" style="stroke:#181818;stroke-width:1.0;"/><polygon fill="none" points="598.46,446.94,617.75,438.18,608.13,457.06,598.46,446.94" style="stroke:#181818;stroke-width:1.0;"/></g><!--MD5=[09a3982d4e4d6174466c2be29885e0c5]
@startuml classes
    skinparam classAttributeIconSize 0
    class User {
        -username: String
        -password: String
        -following: List<User>
        -followers: int = 0
        -joinDate: Instant
        -isActive: boolean
        -isAdmin: boolean
        +boolean follow(User user)
        +boolean unfollow(User user)
    }
    class Page {
        -user: User
        -name: String
        -image: String
        -description: String
        -scoreMeans: ScoreMean[5] 
        -isActive: boolean
    }
    abstract class Postable {
        -author: User
        -text: String
        -creationDate: Instant
        -likes: int
        -dislikes: int
        -isActive: boolean
        -isEdited: boolean
        +void like()
        +void dislike()
    }
    class Post {
        -page: Profile
        -image: String
        -visibility: List~User~
        -title: String
        +boolean turnVisibleTo(User user)
        +boolean turnInvisibleTo(User user)
    }
    class Comment {
        -postable: Postable
    }
    class Modification {
        -postable: Postable
        -oldImage: String
        -oldText: String
        -date: Instant
    }
    class Score {
        -score: int
        -author: User
        -profile: Profile
        -category: String
    }
    class ScoreMean {
        -category: String
        -mean: float
    }
    User "n" - - "n" User
    User "1" - -o "n" Postable
    User "1" - -o "n" Score
    User "n" - - "n" Post
    User "1" - -o "1" Page
    Page "1" *- - "n" Post
    Page "1" *- - "n" Score
    Page "1" o- - "5" ScoreMean
    Postable "1" *- - "n" Modification
    Postable "1" *- - "n" Comment
    Postable <|- - Post
    Postable <|- - Comment
@enduml

PlantUML version 1.2022.7(Mon Aug 22 14:01:30 BRT 2022)
(GPL source distribution)
Java Runtime: Java(TM) SE Runtime Environment
JVM: Java HotSpot(TM) 64-Bit Server VM
Default Encoding: UTF-8
Language: en
Country: US
--></g></svg>