<?xml version="1.0" encoding="UTF-8" standalone="no"?><svg xmlns="http://www.w3.org/2000/svg" xmlns:xlink="http://www.w3.org/1999/xlink" contentStyleType="text/css" height="1480px" preserveAspectRatio="none" style="width:1968px;height:1480px;background:#FFFFFF;" version="1.1" viewBox="0 0 1968 1480" width="1968px" zoomAndPan="magnify"><defs/><g><!--MD5=[fee662a292a0353a69bd162820bae93b]
entity User--><g id="elem_User"><ellipse cx="27.5" cy="601.19" fill="#F1F1F1" rx="8" ry="8" style="stroke:#181818;stroke-width:0.5;"/><path d="M27.5,609.19 L27.5,636.19 M14.5,617.19 L40.5,617.19 M27.5,636.19 L14.5,651.19 M27.5,636.19 L40.5,651.19 " fill="none" style="stroke:#181818;stroke-width:0.5;"/><text fill="#000000" font-family="sans-serif" font-size="14" lengthAdjust="spacing" textLength="32" x="11.5" y="665.6851">User</text></g><!--MD5=[97ab183161fd5d1db7fba7485cf76add]
entity Admin--><g id="elem_Admin"><ellipse cx="27.5" cy="958.19" fill="#F1F1F1" rx="8" ry="8" style="stroke:#181818;stroke-width:0.5;"/><path d="M27.5,966.19 L27.5,993.19 M14.5,974.19 L40.5,974.19 M27.5,993.19 L14.5,1008.19 M27.5,993.19 L40.5,1008.19 " fill="none" style="stroke:#181818;stroke-width:0.5;"/><text fill="#000000" font-family="sans-serif" font-size="14" lengthAdjust="spacing" textLength="43" x="6" y="1022.6851">Admin</text></g><g id="elem_U1"><ellipse cx="1896.4626" cy="587.8825" fill="#F1F1F1" rx="66.4626" ry="15.6925" style="stroke:#181818;stroke-width:0.5;"/><text fill="#000000" font-family="sans-serif" font-size="14" lengthAdjust="spacing" textLength="83" x="1851.9626" y="591.6301">UC01. Login</text></g><g id="elem_U2"><ellipse cx="1601.0751" cy="587.905" fill="#F1F1F1" rx="104.0751" ry="23.215" style="stroke:#181818;stroke-width:0.5;"/><text fill="#000000" font-family="sans-serif" font-size="14" lengthAdjust="spacing" textLength="173" x="1514.5751" y="590.7517">UC02. Selecionar usuário</text></g><g id="elem_U3"><ellipse cx="224.0203" cy="853.4941" fill="#F1F1F1" rx="99.5203" ry="22.3041" style="stroke:#181818;stroke-width:0.5;"/><text fill="#000000" font-family="sans-serif" font-size="14" lengthAdjust="spacing" textLength="163" x="142.5203" y="856.3407">UC03. Gerenciar página</text></g><g id="elem_U4"><ellipse cx="736.7923" cy="901.4485" fill="#F1F1F1" rx="101.7923" ry="22.7585" style="stroke:#181818;stroke-width:0.5;"/><text fill="#000000" font-family="sans-serif" font-size="14" lengthAdjust="spacing" textLength="168" x="652.7923" y="904.2951">UC04. Renomear página</text></g><g id="elem_U5"><ellipse cx="736.9902" cy="816.4693" fill="#F1F1F1" rx="117.9902" ry="26.2793" style="stroke:#181818;stroke-width:0.5;"/><text fill="#000000" font-family="sans-serif" font-size="14" lengthAdjust="spacing" textLength="149" x="659.4902" y="812.0684">UC05. Alterar imagem</text><text fill="#000000" font-family="sans-serif" font-size="14" lengthAdjust="spacing" textLength="67" x="700.4902" y="828.3653">da página</text></g><g id="elem_U6"><ellipse cx="736.8596" cy="727.6619" fill="#F1F1F1" rx="122.8596" ry="26.9719" style="stroke:#181818;stroke-width:0.5;"/><text fill="#000000" font-family="sans-serif" font-size="14" lengthAdjust="spacing" textLength="161" x="653.3596" y="723.261">UC06. Alterar descrição</text><text fill="#000000" font-family="sans-serif" font-size="14" lengthAdjust="spacing" textLength="67" x="700.3596" y="739.5579">da página</text></g><g id="elem_U7"><ellipse cx="465.6163" cy="152.9133" fill="#F1F1F1" rx="94.1163" ry="21.2233" style="stroke:#181818;stroke-width:0.5;"/><text fill="#000000" font-family="sans-serif" font-size="14" lengthAdjust="spacing" textLength="151" x="390.1163" y="155.7599">UC07. Criar postagem</text></g><g id="elem_U8"><ellipse cx="1258.8359" cy="587.6572" fill="#F1F1F1" rx="112.8359" ry="24.9672" style="stroke:#181818;stroke-width:0.5;"/><text fill="#000000" font-family="sans-serif" font-size="14" lengthAdjust="spacing" textLength="192" x="1162.8359" y="590.5039">UC08. Selecionar postagem</text></g><g id="elem_U9"><ellipse cx="465.3093" cy="225.4519" fill="#F1F1F1" rx="96.8093" ry="21.7619" style="stroke:#181818;stroke-width:0.5;"/><text fill="#000000" font-family="sans-serif" font-size="14" lengthAdjust="spacing" textLength="157" x="386.8093" y="228.2985">UC09. Curtir postagem</text></g><g id="elem_U10"><ellipse cx="224.0183" cy="516.6937" fill="#F1F1F1" rx="110.5183" ry="24.5037" style="stroke:#181818;stroke-width:0.5;"/><text fill="#000000" font-family="sans-serif" font-size="14" lengthAdjust="spacing" textLength="187" x="130.5183" y="519.5403">UC10. Gerenciar postagem</text></g><g id="elem_U11"><ellipse cx="737.211" cy="469.6322" fill="#F1F1F1" rx="97.711" ry="21.9422" style="stroke:#181818;stroke-width:0.5;"/><text fill="#000000" font-family="sans-serif" font-size="14" lengthAdjust="spacing" textLength="159" x="657.711" y="472.4789">UC11. Editar postagem</text></g><g id="elem_U12"><ellipse cx="737.0139" cy="298.8928" fill="#F1F1F1" rx="144.0139" ry="31.2028" style="stroke:#181818;stroke-width:0.5;"/><text fill="#000000" font-family="sans-serif" font-size="14" lengthAdjust="spacing" textLength="258" x="608.0139" y="301.7395">UC12. Editar visibilidade da postagem</text></g><g id="elem_U13"><ellipse cx="737.209" cy="388.7318" fill="#F1F1F1" rx="108.209" ry="24.0418" style="stroke:#181818;stroke-width:0.5;"/><text fill="#000000" font-family="sans-serif" font-size="14" lengthAdjust="spacing" textLength="182" x="646.209" y="391.5785">UC13. Remover postagem</text></g><g id="elem_U14"><ellipse cx="465.711" cy="630.6322" fill="#F1F1F1" rx="97.711" ry="21.9422" style="stroke:#181818;stroke-width:0.5;"/><text fill="#000000" font-family="sans-serif" font-size="14" lengthAdjust="spacing" textLength="159" x="386.211" y="633.4789">UC14. Criar comentário</text></g><g id="elem_U15"><ellipse cx="737.0602" cy="1136.902" fill="#F1F1F1" rx="116.5602" ry="25.712" style="stroke:#181818;stroke-width:0.5;"/><text fill="#000000" font-family="sans-serif" font-size="14" lengthAdjust="spacing" textLength="200" x="637.0602" y="1139.7487">UC15. Selecionar comentário</text></g><g id="elem_U16"><ellipse cx="223.9278" cy="949.6756" fill="#F1F1F1" rx="100.4278" ry="22.4856" style="stroke:#181818;stroke-width:0.5;"/><text fill="#000000" font-family="sans-serif" font-size="14" lengthAdjust="spacing" textLength="165" x="141.4278" y="952.5222">UC16. Curtir comentário</text></g><g id="elem_U17"><ellipse cx="224.2303" cy="1145.9361" fill="#F1F1F1" rx="114.2303" ry="25.2461" style="stroke:#181818;stroke-width:0.5;"/><text fill="#000000" font-family="sans-serif" font-size="14" lengthAdjust="spacing" textLength="195" x="126.7303" y="1148.7827">UC17. Gerenciar comentário</text></g><g id="elem_U18"><ellipse cx="736.8371" cy="1366.8574" fill="#F1F1F1" rx="101.3371" ry="22.6674" style="stroke:#181818;stroke-width:0.5;"/><text fill="#000000" font-family="sans-serif" font-size="14" lengthAdjust="spacing" textLength="167" x="653.3371" y="1369.7041">UC18. Editar comentário</text></g><g id="elem_U19"><ellipse cx="736.9079" cy="1449.4716" fill="#F1F1F1" rx="111.9079" ry="24.7816" style="stroke:#181818;stroke-width:0.5;"/><text fill="#000000" font-family="sans-serif" font-size="14" lengthAdjust="spacing" textLength="190" x="641.9079" y="1452.3183">UC19. Remover comentário</text></g><g id="elem_U20"><ellipse cx="1013.7042" cy="47.6308" fill="#F1F1F1" rx="102.7042" ry="22.9408" style="stroke:#181818;stroke-width:0.5;"/><text fill="#000000" font-family="sans-serif" font-size="14" lengthAdjust="spacing" textLength="170" x="928.7042" y="50.4775">UC20. Avaliar um usuário</text></g><g id="elem_U21"><ellipse cx="223.7923" cy="1062.4485" fill="#F1F1F1" rx="101.7923" ry="22.7585" style="stroke:#181818;stroke-width:0.5;"/><text fill="#000000" font-family="sans-serif" font-size="14" lengthAdjust="spacing" textLength="168" x="139.7923" y="1065.2951">UC21. Gerenciar usuário</text></g><g id="elem_U22"><ellipse cx="736.9278" cy="1053.6756" fill="#F1F1F1" rx="100.4278" ry="22.4856" style="stroke:#181818;stroke-width:0.5;"/><text fill="#000000" font-family="sans-serif" font-size="14" lengthAdjust="spacing" textLength="165" x="654.4278" y="1056.5222">UC22. Desativar usuário</text></g><g id="elem_U23"><ellipse cx="736.8518" cy="1217.7604" fill="#F1F1F1" rx="88.3518" ry="20.0704" style="stroke:#181818;stroke-width:0.5;"/><text fill="#000000" font-family="sans-serif" font-size="14" lengthAdjust="spacing" textLength="138" x="667.8518" y="1220.607">UC23. Ativar usuário</text></g><!--MD5=[36ae9b4624afb939b48e1dbbfe5f431c]
link User to U3--><g id="link_User_U3"><path d="M43.76,648.19 C77.75,687.16 159.84,781.28 200.04,827.37 " fill="none" id="User-to-U3" style="stroke:#008000;stroke-width:1.0;"/><polygon fill="#008000" points="203.57,831.41,200.674,821.9965,200.2856,827.64,194.6421,827.2516,203.57,831.41" style="stroke:#008000;stroke-width:1.0;"/></g><!--MD5=[7e1d260b0ccab459ebb7478dbbf8e6e4]
link User to U7--><g id="link_User_U7"><path d="M32.59,592.57 C40.03,538.3 59.92,437.7 110,368.69 C192.56,254.91 242.87,249.76 368,185.69 C378.76,180.18 390.64,175.27 402.28,171.02 " fill="none" id="User-to-U7" style="stroke:#008000;stroke-width:1.0;"/><polygon fill="#008000" points="407.25,169.24,397.428,168.5133,402.5436,170.928,400.1288,176.0436,407.25,169.24" style="stroke:#008000;stroke-width:1.0;"/></g><!--MD5=[f53816a94524a0f3bdc61c0779d2437a]
link User to U9--><g id="link_User_U9"><path d="M42.36,592.65 C55.93,559.02 79.07,509.95 110,474.69 C122.71,460.2 342.47,309.19 429.46,249.64 " fill="none" id="User-to-U9" style="stroke:#008000;stroke-width:1.0;"/><polygon fill="#008000" points="433.75,246.7,424.0604,248.4641,429.6186,249.5162,428.5664,255.0744,433.75,246.7" style="stroke:#008000;stroke-width:1.0;"/></g><!--MD5=[2628cf21d63148fd15b13507b250e7cb]
link User to U10--><g id="link_User_U10"><path d="M43.76,621.74 C72.68,604.8 136.42,567.44 179.55,542.16 " fill="none" id="User-to-U10" style="stroke:#008000;stroke-width:1.0;"/><polygon fill="#008000" points="183.92,539.6,174.1343,540.714,179.61,542.1345,178.1895,547.6101,183.92,539.6" style="stroke:#008000;stroke-width:1.0;"/></g><!--MD5=[ca5bf99f88b855f6f81dffc4092f507c]
link User to U14--><g id="link_User_U14"><path d="M43.51,630.69 C93.11,630.69 254.74,630.69 362.68,630.69 " fill="none" id="User-to-U14" style="stroke:#008000;stroke-width:1.0;"/><polygon fill="#008000" points="367.78,630.69,358.78,626.69,362.78,630.69,358.78,634.69,367.78,630.69" style="stroke:#008000;stroke-width:1.0;"/></g><!--MD5=[822810c2bc5e1a2e613cd741420621a9]
link User to U16--><g id="link_User_U16"><path d="M38.52,668.78 C56.82,737.38 95.14,876.25 110,893.69 C123.22,909.21 141.77,920.85 160.03,929.37 " fill="none" id="User-to-U16" style="stroke:#008000;stroke-width:1.0;"/><polygon fill="#008000" points="164.66,931.48,158.1306,924.1066,160.1106,929.4056,154.8116,931.3856,164.66,931.48" style="stroke:#008000;stroke-width:1.0;"/></g><!--MD5=[092230405083854a649ca4b7e4c7ed9c]
link User to U17--><g id="link_User_U17"><path d="M30.19,668.81 C35.36,769.25 54.23,1037.9 110,1103.69 C117.76,1112.84 127.7,1120 138.47,1125.6 " fill="none" id="User-to-U17" style="stroke:#008000;stroke-width:1.0;"/><polygon fill="#008000" points="143.13,1127.9,136.8399,1120.3215,138.6493,1125.6811,133.2897,1127.4906,143.13,1127.9" style="stroke:#008000;stroke-width:1.0;"/></g><!--MD5=[c0ae880dbbbc5138c65e83e32b85af31]
link User to U20--><g id="link_User_U20"><path d="M32.88,592.48 C43.1,508.78 70.67,312.52 110,259.69 C298.87,6 729.56,16.86 919.53,35.61 " fill="none" id="User-to-U20" style="stroke:#008000;stroke-width:1.0;"/><polygon fill="#008000" points="924.53,36.11,915.9741,31.2319,919.555,35.6111,915.1758,39.192,924.53,36.11" style="stroke:#008000;stroke-width:1.0;"/></g><!--MD5=[f312e0277297aa991a5d1a70cbdbf534]
link User to U21--><g id="link_User_U21"><path d="M28.06,668.75 C29.08,738.65 39.95,889.52 110,989.69 C125.06,1011.22 148.7,1027.93 170.48,1039.89 " fill="none" id="User-to-U21" style="stroke:#008000;stroke-width:1.0;"/><polygon fill="#008000" points="175.09,1042.37,169.0652,1034.5789,170.6886,1039.9978,165.2696,1041.6212,175.09,1042.37" style="stroke:#008000;stroke-width:1.0;"/></g><!--MD5=[c5237bbebd9a69accd7ea24c9047b711]
link Admin to U3--><g id="link_Admin_U3"><path d="M49.05,964.57 C64.65,947.91 87.23,925.66 110,909.69 C128.59,896.65 150.66,884.98 170.35,875.72 " fill="none" id="Admin-to-U3" style="stroke:#FF0000;stroke-width:1.0;"/><polygon fill="#FF0000" points="175.3,873.42,165.4528,873.6029,170.7694,875.5352,168.8372,880.8518,175.3,873.42" style="stroke:#FF0000;stroke-width:1.0;"/></g><!--MD5=[c2fb3029dfa0b9a96459638fdefe913d]
link Admin to U10--><g id="link_Admin_U10"><path d="M44.25,949.55 C82.03,858.07 177.13,627.78 210.88,546.03 " fill="none" id="Admin-to-U10" style="stroke:#FF0000;stroke-width:1.0;"/><polygon fill="#FF0000" points="212.83,541.33,205.6866,548.1102,210.914,545.9483,213.0759,551.1758,212.83,541.33" style="stroke:#FF0000;stroke-width:1.0;"/></g><!--MD5=[26e1ae6e93982ecc078ec1ecdfef410d]
link Admin to U17--><g id="link_Admin_U17"><path d="M42.09,1025.75 C50.48,1045.34 62.78,1068.63 79,1085.69 C95.99,1103.55 119.1,1116.3 141.84,1125.31 " fill="none" id="Admin-to-U17" style="stroke:#FF0000;stroke-width:1.0;"/><polygon fill="#FF0000" points="146.68,1127.18,139.7273,1120.2044,142.0162,1125.3774,136.8432,1127.6664,146.68,1127.18" style="stroke:#FF0000;stroke-width:1.0;"/></g><!--MD5=[fba84500601c2c676f5ac5b94bdddf18]
link Admin to U21--><g id="link_Admin_U21"><path d="M49.31,995.72 C77.1,1006.43 127.36,1025.81 166.69,1040.98 " fill="none" id="Admin-to-U21" style="stroke:#FF0000;stroke-width:1.0;"/><polygon fill="#FF0000" points="171.43,1042.8,164.4701,1035.8315,166.7644,1041.0022,161.5937,1043.2965,171.43,1042.8" style="stroke:#FF0000;stroke-width:1.0;"/></g><!--MD5=[2478700edf68dfa16a8dd583bc136a2e]
link U2 to U1--><g id="link_U2_U1"><path d="M1705.06,587.69 C1744.58,587.69 1788.74,587.69 1824.59,587.69 " fill="none" id="U2-to-U1" style="stroke:#181818;stroke-width:1.0;stroke-dasharray:7.0,7.0;"/><polygon fill="#181818" points="1829.81,587.69,1820.81,583.69,1824.81,587.69,1820.81,591.69,1829.81,587.69" style="stroke:#181818;stroke-width:1.0;"/><text fill="#000000" font-family="sans-serif" font-size="13" lengthAdjust="spacing" textLength="63" x="1736" y="583.7569">«inherits»</text></g><!--MD5=[10da105bb49d4f2a32c20f36826de769]
link U3 to U2--><g id="link_U3_U2"><path d="M286.77,871.23 C311.9,878.18 341.27,886.08 368,892.69 C530.4,932.86 958.24,1033.34 1116,977.69 C1328.95,902.57 1517.15,689.68 1578.78,614.44 " fill="none" id="U3-to-U2" style="stroke:#181818;stroke-width:1.0;stroke-dasharray:7.0,7.0;"/><polygon fill="#181818" points="1581.97,610.53,1573.1822,614.9768,1578.81,614.4049,1579.382,620.0327,1581.97,610.53" style="stroke:#181818;stroke-width:1.0;"/><text fill="#000000" font-family="sans-serif" font-size="13" lengthAdjust="spacing" textLength="63" x="982" y="973.7569">«inherits»</text></g><!--MD5=[2a4fc7ff774d8a92ab3cb5852221cfb4]
reverse link U3 to U4--><g id="link_U3_U4"><path d="M320.73,863.13 C336.52,864.67 352.72,866.24 368,867.69 C461.25,876.56 567.83,886.37 642.21,893.17 " fill="none" id="U3-backto-U4" style="stroke:#181818;stroke-width:1.0;stroke-dasharray:7.0,7.0;"/><polygon fill="#181818" points="315.39,862.61,323.9584,867.4662,320.3663,863.0962,324.7363,859.5041,315.39,862.61" style="stroke:#181818;stroke-width:1.0;"/><text fill="#000000" font-family="sans-serif" font-size="13" lengthAdjust="spacing" textLength="67" x="432" y="863.7569">«extends»</text></g><!--MD5=[7e0adb14443e8fdd691d84cf80511718]
reverse link U3 to U5--><g id="link_U3_U5"><path d="M324.12,846.51 C410.19,840.28 534.72,831.26 624.3,824.78 " fill="none" id="U3-backto-U5" style="stroke:#181818;stroke-width:1.0;stroke-dasharray:7.0,7.0;"/><polygon fill="#181818" points="319.02,846.88,328.2923,850.2003,324.0062,846.5085,327.698,842.2224,319.02,846.88" style="stroke:#181818;stroke-width:1.0;"/><text fill="#000000" font-family="sans-serif" font-size="13" lengthAdjust="spacing" textLength="67" x="432" y="825.7569">«extends»</text></g><!--MD5=[ebe9c9ccd0af6b09c2f9834a8b82dcbe]
reverse link U3 to U6--><g id="link_U3_U6"><path d="M280.97,832.71 C307.17,823.36 338.94,812.68 368,804.69 C459.26,779.61 565.2,758.24 639.91,744.42 " fill="none" id="U3-backto-U6" style="stroke:#181818;stroke-width:1.0;stroke-dasharray:7.0,7.0;"/><polygon fill="#181818" points="276.15,834.44,285.9739,835.1403,280.8519,832.7393,283.2528,827.6173,276.15,834.44" style="stroke:#181818;stroke-width:1.0;"/><text fill="#000000" font-family="sans-serif" font-size="13" lengthAdjust="spacing" textLength="67" x="432" y="756.7569">«extends»</text></g><!--MD5=[2d19a98bfe4d20c2b5dabcda2fb3c824]
link U7 to U2--><g id="link_U7_U2"><path d="M558.24,149.16 C643.59,148.39 773.4,153.69 881,185.69 C1169.71,271.56 1470.04,488.24 1567.45,562.37 " fill="none" id="U7-to-U2" style="stroke:#181818;stroke-width:1.0;stroke-dasharray:7.0,7.0;"/><polygon fill="#181818" points="1571.65,565.58,1566.9041,556.95,1567.6689,562.5549,1562.064,563.3198,1571.65,565.58" style="stroke:#181818;stroke-width:1.0;"/><text fill="#000000" font-family="sans-serif" font-size="13" lengthAdjust="spacing" textLength="63" x="982" y="194.7569">«inherits»</text></g><!--MD5=[e5b7d8f60c120f8fcf63ae7fb040990d]
link U8 to U2--><g id="link_U8_U2"><path d="M1372.27,587.69 C1410.68,587.69 1453.56,587.69 1491.65,587.69 " fill="none" id="U8-to-U2" style="stroke:#181818;stroke-width:1.0;stroke-dasharray:7.0,7.0;"/><polygon fill="#181818" points="1496.75,587.69,1487.75,583.69,1491.75,587.69,1487.75,591.69,1496.75,587.69" style="stroke:#181818;stroke-width:1.0;"/><text fill="#000000" font-family="sans-serif" font-size="13" lengthAdjust="spacing" textLength="63" x="1403" y="583.7569">«inherits»</text></g><!--MD5=[743bb2bdd15339b6af35831a4a3aa1c5]
link U9 to U8--><g id="link_U9_U8"><path d="M549.91,214.84 C636.26,207.12 773.36,204.89 881,249.69 C1045.39,318.1 1185.65,489.86 1237.06,558.59 " fill="none" id="U9-to-U8" style="stroke:#181818;stroke-width:1.0;stroke-dasharray:7.0,7.0;"/><polygon fill="#181818" points="1240.32,562.97,1238.142,553.365,1237.3292,558.9631,1231.731,558.1503,1240.32,562.97" style="stroke:#181818;stroke-width:1.0;"/><text fill="#000000" font-family="sans-serif" font-size="13" lengthAdjust="spacing" textLength="63" x="705.5" y="206.7569">«inherits»</text></g><!--MD5=[8a80a1591c95776e817d7fffd0960e7e]
link U10 to U8--><g id="link_U10_U8"><path d="M331,523.08 C497.99,533.3 832.52,554.33 1116,575.69 C1126.48,576.48 1137.4,577.34 1148.31,578.22 " fill="none" id="U10-to-U8" style="stroke:#181818;stroke-width:1.0;stroke-dasharray:7.0,7.0;"/><polygon fill="#181818" points="1153.33,578.63,1144.6921,573.8985,1148.3472,578.216,1144.0297,581.871,1153.33,578.63" style="stroke:#181818;stroke-width:1.0;"/><text fill="#000000" font-family="sans-serif" font-size="13" lengthAdjust="spacing" textLength="63" x="705.5" y="535.7569">«inherits»</text></g><!--MD5=[f41739cddb36bc3e7054e58c069434cc]
reverse link U10 to U11--><g id="link_U10_U11"><path d="M331.51,506.89 C424.74,498.32 558.66,486 646.47,477.92 " fill="none" id="U10-backto-U11" style="stroke:#181818;stroke-width:1.0;stroke-dasharray:7.0,7.0;"/><polygon fill="#181818" points="326.26,507.38,335.5885,510.5391,331.239,506.9222,334.8559,502.5727,326.26,507.38" style="stroke:#181818;stroke-width:1.0;"/><text fill="#000000" font-family="sans-serif" font-size="13" lengthAdjust="spacing" textLength="67" x="432" y="482.7569">«extends»</text></g><!--MD5=[4fe14d62c3eefa8d8106a6453399007a]
reverse link U10 to U12--><g id="link_U10_U12"><path d="M268.55,490.94 C290.76,476.6 317.36,457.48 338,436.69 C354.42,420.16 348.86,406.98 368,393.69 C437.09,345.69 528.65,321.94 603.15,310.19 " fill="none" id="U10-backto-U12" style="stroke:#181818;stroke-width:1.0;stroke-dasharray:7.0,7.0;"/><polygon fill="#181818" points="264.17,493.74,273.9059,492.2529,268.3801,491.0427,269.5903,485.5168,264.17,493.74" style="stroke:#181818;stroke-width:1.0;"/><text fill="#000000" font-family="sans-serif" font-size="13" lengthAdjust="spacing" textLength="67" x="432" y="314.7569">«extends»</text></g><!--MD5=[25844728536cb9953ba8c29c85945084]
reverse link U10 to U13--><g id="link_U10_U13"><path d="M280.07,492.97 C306.33,482.31 338.41,470.25 368,461.69 C461.7,434.59 571.7,414.22 646.87,401.97 " fill="none" id="U10-backto-U13" style="stroke:#181818;stroke-width:1.0;stroke-dasharray:7.0,7.0;"/><polygon fill="#181818" points="275.24,494.94,285.084,495.2487,279.8705,493.0535,282.0656,487.84,275.24,494.94" style="stroke:#181818;stroke-width:1.0;"/><text fill="#000000" font-family="sans-serif" font-size="13" lengthAdjust="spacing" textLength="67" x="432" y="414.7569">«extends»</text></g><!--MD5=[8ded911a4bb4d86d8d0afa5acbeb4f70]
link U14 to U8--><g id="link_U14_U8"><path d="M560.4,625.59 C706.24,617.67 986.71,602.43 1143.96,593.89 " fill="none" id="U14-to-U8" style="stroke:#181818;stroke-width:1.0;stroke-dasharray:7.0,7.0;"/><polygon fill="#181818" points="1149.04,593.61,1139.8364,590.1037,1144.0474,593.881,1140.2701,598.092,1149.04,593.61" style="stroke:#181818;stroke-width:1.0;"/><text fill="#000000" font-family="sans-serif" font-size="13" lengthAdjust="spacing" textLength="63" x="705.5" y="604.7569">«inherits»</text></g><!--MD5=[b15bc9e6ad4fb12570175e2b1bd203b0]
link U15 to U8--><g id="link_U15_U8"><path d="M834.94,1122.86 C852.21,1116.44 868.62,1107.14 881,1093.69 C924.4,1046.56 881.14,1009.37 911,952.69 C990.22,802.33 1149.19,669.87 1221.13,614.82 " fill="none" id="U15-to-U8" style="stroke:#181818;stroke-width:1.0;stroke-dasharray:7.0,7.0;"/><polygon fill="#181818" points="1225.33,611.62,1215.7479,613.8968,1221.3542,614.6519,1220.599,620.2582,1225.33,611.62" style="stroke:#181818;stroke-width:1.0;"/><text fill="#000000" font-family="sans-serif" font-size="13" lengthAdjust="spacing" textLength="63" x="982" y="700.7569">«inherits»</text></g><!--MD5=[57b83175c19dbe406e9d022d0743d89c]
link U16 to U15--><g id="link_U16_U15"><path d="M265.68,970.27 C293.8,983.76 332.41,1000.84 368,1011.69 C452.3,1037.38 489.66,998.82 563,1047.69 C583.31,1061.22 573.46,1079.06 593,1093.69 C607.51,1104.55 624.77,1112.69 642.18,1118.78 " fill="none" id="U16-to-U15" style="stroke:#181818;stroke-width:1.0;stroke-dasharray:7.0,7.0;"/><polygon fill="#181818" points="647.1,1120.44,639.8508,1113.773,642.3623,1118.8417,637.2936,1121.3533,647.1,1120.44" style="stroke:#181818;stroke-width:1.0;"/><text fill="#000000" font-family="sans-serif" font-size="13" lengthAdjust="spacing" textLength="63" x="434" y="1007.7569">«inherits»</text></g><!--MD5=[78f1e2020e0c75b4665f66a3327ff0d8]
link U17 to U15--><g id="link_U17_U15"><path d="M337.77,1143.7 C420.11,1142.25 531.56,1140.29 615.62,1138.81 " fill="none" id="U17-to-U15" style="stroke:#181818;stroke-width:1.0;stroke-dasharray:7.0,7.0;"/><polygon fill="#181818" points="620.86,1138.72,611.7928,1134.8749,615.8607,1138.8057,611.9299,1142.8737,620.86,1138.72" style="stroke:#181818;stroke-width:1.0;"/><text fill="#000000" font-family="sans-serif" font-size="13" lengthAdjust="spacing" textLength="63" x="434" y="1135.7569">«inherits»</text></g><!--MD5=[3ec0946748974653dd519aa22aac6bb9]
reverse link U17 to U18--><g id="link_U17_U18"><path d="M237.93,1175.46 C258.5,1218.75 303.07,1297.8 368,1333.69 C454.59,1381.56 570.44,1383.72 648.85,1377.88 " fill="none" id="U17-backto-U18" style="stroke:#181818;stroke-width:1.0;stroke-dasharray:7.0,7.0;"/><polygon fill="#181818" points="235.78,1170.88,235.9884,1180.7267,237.9069,1175.4051,243.2285,1177.3236,235.78,1170.88" style="stroke:#181818;stroke-width:1.0;"/><text fill="#000000" font-family="sans-serif" font-size="13" lengthAdjust="spacing" textLength="67" x="432" y="1329.7569">«extends»</text></g><!--MD5=[12ded33f05477a1f4b389899fcbc341a]
reverse link U17 to U19--><g id="link_U17_U19"><path d="M232.11,1175.84 C246.91,1231.26 286.62,1348.67 368,1403.69 C446.67,1456.88 556.86,1464.05 636.12,1460.57 " fill="none" id="U17-backto-U19" style="stroke:#181818;stroke-width:1.0;stroke-dasharray:7.0,7.0;"/><polygon fill="#181818" points="230.76,1170.67,229.1566,1180.3875,232.0198,1175.5087,236.8986,1178.3718,230.76,1170.67" style="stroke:#181818;stroke-width:1.0;"/><text fill="#000000" font-family="sans-serif" font-size="13" lengthAdjust="spacing" textLength="67" x="432" y="1399.7569">«extends»</text></g><!--MD5=[e255c2aff55912069561e125b8ec8ec6]
link U20 to U2--><g id="link_U20_U2"><path d="M1092.79,32.98 C1192.13,19.13 1363.01,12.09 1467,101.69 C1538.38,163.2 1583.81,465.34 1596.42,559.57 " fill="none" id="U20-to-U2" style="stroke:#181818;stroke-width:1.0;stroke-dasharray:7.0,7.0;"/><polygon fill="#181818" points="1597.1,564.69,1599.8826,555.2424,1596.4429,559.7334,1591.952,556.2937,1597.1,564.69" style="stroke:#181818;stroke-width:1.0;"/><text fill="#000000" font-family="sans-serif" font-size="13" lengthAdjust="spacing" textLength="63" x="1227.5" y="21.7569">«inherits»</text></g><!--MD5=[935a2f9f8a26018aa0c8aa5fd0385ffb]
link U21 to U2--><g id="link_U21_U2"><path d="M300.21,1078.09 C314.39,1084.04 327.91,1092.28 338,1103.69 C377.56,1148.44 323.07,1195.33 368,1234.69 C413.97,1274.95 879.25,1256.16 881,1255.69 C1124.48,1190.35 1192.73,1148.93 1372,971.69 C1484.26,860.7 1562.18,683.35 1589.37,615.41 " fill="none" id="U21-to-U2" style="stroke:#181818;stroke-width:1.0;stroke-dasharray:7.0,7.0;"/><polygon fill="#181818" points="1591.24,610.71,1584.2091,617.6068,1589.4003,615.3592,1591.6479,620.5504,1591.24,610.71" style="stroke:#181818;stroke-width:1.0;"/><text fill="#000000" font-family="sans-serif" font-size="13" lengthAdjust="spacing" textLength="63" x="982" y="1170.7569">«inherits»</text></g><!--MD5=[fc452e99b3d37754beb102b122f02097]
reverse link U21 to U22--><g id="link_U21_U22"><path d="M329.39,1067.58 C342.39,1068.04 355.5,1068.43 368,1068.69 C454.65,1070.51 476.41,1072.44 563,1068.69 C589.81,1067.53 618.88,1065.36 645.41,1063.03 " fill="none" id="U21-backto-U22" style="stroke:#181818;stroke-width:1.0;stroke-dasharray:7.0,7.0;"/><polygon fill="#181818" points="324.22,1067.39,333.0653,1071.7213,329.2166,1067.5756,333.3623,1063.7268,324.22,1067.39" style="stroke:#181818;stroke-width:1.0;"/><text fill="#000000" font-family="sans-serif" font-size="13" lengthAdjust="spacing" textLength="67" x="432" y="1064.7569">«extends»</text></g><!--MD5=[eebfbca31c74dd5ffdf990c6d7e0b854]
reverse link U21 to U23--><g id="link_U21_U23"><path d="M301.29,1081.03 C314.59,1086.71 327.5,1094.1 338,1103.69 C361.19,1124.88 342.69,1149.09 368,1167.69 C452.69,1229.92 578.72,1233.18 659.12,1227.33 " fill="none" id="U21-backto-U23" style="stroke:#181818;stroke-width:1.0;stroke-dasharray:7.0,7.0;"/><polygon fill="#181818" points="296.37,1079.01,303.1768,1086.1281,300.9955,1080.9087,306.2148,1078.7273,296.37,1079.01" style="stroke:#181818;stroke-width:1.0;"/><text fill="#000000" font-family="sans-serif" font-size="13" lengthAdjust="spacing" textLength="67" x="432" y="1163.7569">«extends»</text></g><!--MD5=[a8311e8ab59b9cbccb524265ffc88422]
@startuml usecase

left to right direction

actor User
actor Admin

usecase "UC01. Login" as U1
usecase "UC02. Selecionar usuário" as U2

usecase "UC03. Gerenciar página" as U3
usecase "UC04. Renomear página" as U4
usecase "UC05. Alterar imagem\nda página" as U5
usecase "UC06. Alterar descrição\nda página" as U6

usecase "UC07. Criar postagem" as U7
usecase "UC08. Selecionar postagem" as U8
usecase "UC09. Curtir postagem" as U9

usecase "UC10. Gerenciar postagem" as U10
usecase "UC11. Editar postagem" as U11
usecase "UC12. Editar visibilidade da postagem" as U12
usecase "UC13. Remover postagem" as U13

usecase "UC14. Criar comentário" as U14
usecase "UC15. Selecionar comentário" as U15
usecase "UC16. Curtir comentário" as U16

usecase "UC17. Gerenciar comentário" as U17
usecase "UC18. Editar comentário" as U18
usecase "UC19. Remover comentário" as U19

usecase "UC20. Avaliar um usuário" as U20

usecase "UC21. Gerenciar usuário" as U21
usecase "UC22. Desativar usuário" as U22
usecase "UC23. Ativar usuário" as U23

User -[#green]-> U3
User -[#green]-> U7
User -[#green]-> U9
User -[#green]-> U10
User -[#green]-> U14
User -[#green]-> U16
User -[#green]-> U17
User -[#green]-> U20
User -[#green]-> U21

Admin -[#red]-> U3
Admin -[#red]-> U10
Admin -[#red]-> U17
Admin -[#red]-> U21

U2 ..> U1 : <<inherits>>

U3 ..> U2 : <<inherits>>

U3 <.. U4 : <<extends>>
U3 <.. U5 : <<extends>>
U3 <.. U6 : <<extends>>

U7 ..> U2 : <<inherits>>
U8 ..> U2 : <<inherits>>

U9 ..> U8 : <<inherits>>
U10 ..> U8 : <<inherits>>

U10 <.. U11 : <<extends>>
U10 <.. U12 : <<extends>>
U10 <.. U13 : <<extends>>

U14 ..> U8 : <<inherits>>
U15 ..> U8 : <<inherits>>
U16 ..> U15 : <<inherits>>
U17 ..> U15 : <<inherits>>

U17 <.. U18 : <<extends>>
U17 <.. U19 : <<extends>>

U20 ..> U2 : <<inherits>>
U21 ..> U2 : <<inherits>>

U21 <.. U22 : <<extends>>
U21 <.. U23 : <<extends>>
@enduml

PlantUML version 1.2022.7(Mon Aug 22 14:01:30 BRT 2022)
(GPL source distribution)
Java Runtime: Java(TM) SE Runtime Environment
JVM: Java HotSpot(TM) 64-Bit Server VM
Default Encoding: UTF-8
Language: en
Country: US
--></g></svg>